<mxfile host="65bd71144e">
    <diagram id="HIP3nbAZw_EuaXWnEj3U" name="Page-1">
        <mxGraphModel dx="1207" dy="860" grid="1" gridSize="10" guides="1" tooltips="1" connect="1" arrows="1" fold="1" page="1" pageScale="1" pageWidth="850" pageHeight="1100" math="0" shadow="0">
            <root>
                <mxCell id="0"/>
                <mxCell id="1" parent="0"/>
                <mxCell id="7" value="http://ics2o.mths.ca" style="swimlane;whiteSpace=wrap;html=1;" parent="1" vertex="1">
                    <mxGeometry x="40" y="40" width="760" height="480" as="geometry"/>
                </mxCell>
                <mxCell id="12" value="Calculate" style="rounded=1;whiteSpace=wrap;html=1;fontSize=20;" vertex="1" parent="7">
                    <mxGeometry x="30" y="280" width="190" height="40" as="geometry"/>
                </mxCell>
                <mxCell id="13" value="100&amp;nbsp;รท 3 = 33 and the remainder is: 1" style="text;html=1;align=left;verticalAlign=middle;resizable=0;points=[];autosize=1;strokeColor=none;fillColor=none;fontSize=15;fontColor=light-dark(#000000,#FFFFFF);" vertex="1" parent="7">
                    <mxGeometry x="30" y="340" width="260" height="30" as="geometry"/>
                </mxCell>
                <mxCell id="15" value="Divisor..." style="rounded=1;whiteSpace=wrap;html=1;align=left;" vertex="1" parent="7">
                    <mxGeometry x="30" y="220" width="300" height="20" as="geometry"/>
                </mxCell>
                <mxCell id="16" value="" style="shape=image;verticalLabelPosition=bottom;labelBackgroundColor=default;verticalAlign=top;aspect=fixed;imageAspect=0;image=data:image/jpeg,/9j/4AAQSkZJRgABAQAAAQABAAD/4QAqRXhpZgAASUkqAAgAAAABADEBAgAHAAAAGgAAAAAAAABHb29nbGUAAP/iB+hJQ0NfUFJPRklMRQABAQAAB9hhcHBsAiAAAG1udHJSR0IgWFlaIAfZAAIAGQALABoAC2Fjc3BBUFBMAAAAAGFwcGwAAAAAAAAAAAAAAAAAAAAAAAD21gABAAAAANMtYXBwbAAAAAAAAAAAAAAAAAAAAAAAAAAAAAAAAAAAAAAAAAAAAAAAAAAAAAAAAAAAAAAAC2Rlc2MAAAEIAAAAb2RzY20AAAF4AAAFnGNwcnQAAAcUAAAAOHd0cHQAAAdMAAAAFHJYWVoAAAdgAAAAFGdYWVoAAAd0AAAAFGJYWVoAAAeIAAAAFHJUUkMAAAecAAAADmNoYWQAAAesAAAALGJUUkMAAAecAAAADmdUUkMAAAecAAAADmRlc2MAAAAAAAAAFEdlbmVyaWMgUkdCIFByb2ZpbGUAAAAAAAAAAAAAABRHZW5lcmljIFJHQiBQcm9maWxlAAAAAAAAAAAAAAAAAAAAAAAAAAAAAAAAAAAAAAAAAAAAAAAAAAAAAAAAAAAAAAAAAABtbHVjAAAAAAAAAB8AAAAMc2tTSwAAACgAAAGEZGFESwAAAC4AAAGsY2FFUwAAACQAAAHadmlWTgAAACQAAAH+cHRCUgAAACYAAAIidWtVQQAAACoAAAJIZnJGVQAAACgAAAJyaHVIVQAAACgAAAKaemhUVwAAABYAAALCbmJOTwAAACYAAALYY3NDWgAAACIAAAL+aGVJTAAAAB4AAAMgaXRJVAAAACgAAAM+cm9STwAAACQAAANmZGVERQAAACwAAAOKa29LUgAAABYAAAO2c3ZTRQAAACYAAALYemhDTgAAABYAAAPMamFKUAAAABoAAAPiZWxHUgAAACIAAAP8cHRQTwAAACYAAAQebmxOTAAAACgAAAREZXNFUwAAACYAAAQedGhUSAAAACQAAARsdHJUUgAAACIAAASQZmlGSQAAACgAAASyaHJIUgAAACgAAATacGxQTAAAACwAAAUCcnVSVQAAACIAAAUuYXJFRwAAACYAAAVQZW5VUwAAACYAAAV2AFYBYQBlAG8AYgBlAGMAbgD9ACAAUgBHAEIAIABwAHIAbwBmAGkAbABHAGUAbgBlAHIAZQBsACAAUgBHAEIALQBiAGUAcwBrAHIAaQB2AGUAbABzAGUAUABlAHIAZgBpAGwAIABSAEcAQgAgAGcAZQBuAOgAcgBpAGMAQx6lAHUAIABoAOwAbgBoACAAUgBHAEIAIABDAGgAdQBuAGcAUABlAHIAZgBpAGwAIABSAEcAQgAgAEcAZQBuAOkAcgBpAGMAbwQXBDAEMwQwBDsETAQ9BDgEOQAgBD8EQAQ+BEQEMAQ5BDsAIABSAEcAQgBQAHIAbwBmAGkAbAAgAGcA6QBuAOkAcgBpAHEAdQBlACAAUgBWAEIAwQBsAHQAYQBsAOEAbgBvAHMAIABSAEcAQgAgAHAAcgBvAGYAaQBskBp1KAAgAFIARwBCACCCcl9pY8+P8ABHAGUAbgBlAHIAaQBzAGsAIABSAEcAQgAtAHAAcgBvAGYAaQBsAE8AYgBlAGMAbgD9ACAAUgBHAEIAIABwAHIAbwBmAGkAbAXkBegF1QXkBdkF3AAgAFIARwBCACAF2wXcBdwF2QBQAHIAbwBmAGkAbABvACAAUgBHAEIAIABnAGUAbgBlAHIAaQBjAG8AUAByAG8AZgBpAGwAIABSAEcAQgAgAGcAZQBuAGUAcgBpAGMAQQBsAGwAZwBlAG0AZQBpAG4AZQBzACAAUgBHAEIALQBQAHIAbwBmAGkAbMd8vBgAIABSAEcAQgAg1QS4XNMMx3xmbpAaACAAUgBHAEIAIGPPj/Blh072TgCCLAAgAFIARwBCACAw1zDtMNUwoTCkMOsDkwO1A70DuQO6A8wAIAPAA8EDvwPGA68DuwAgAFIARwBCAFAAZQByAGYAaQBsACAAUgBHAEIAIABnAGUAbgDpAHIAaQBjAG8AQQBsAGcAZQBtAGUAZQBuACAAUgBHAEIALQBwAHIAbwBmAGkAZQBsDkIOGw4jDkQOHw4lDkwAIABSAEcAQgAgDhcOMQ5IDicORA4bAEcAZQBuAGUAbAAgAFIARwBCACAAUAByAG8AZgBpAGwAaQBZAGwAZQBpAG4AZQBuACAAUgBHAEIALQBwAHIAbwBmAGkAaQBsAGkARwBlAG4AZQByAGkBDQBrAGkAIABSAEcAQgAgAHAAcgBvAGYAaQBsAFUAbgBpAHcAZQByAHMAYQBsAG4AeQAgAHAAcgBvAGYAaQBsACAAUgBHAEIEHgQxBEkEOAQ5ACAEPwRABD4ERAQ4BDsETAAgAFIARwBCBkUGRAZBACAGKgY5BjEGSgZBACAAUgBHAEIAIAYnBkQGOQYnBkUARwBlAG4AZQByAGkAYwAgAFIARwBCACAAUAByAG8AZgBpAGwAZXRleHQAAAAAQ29weXJpZ2h0IDIwMDcgQXBwbGUgSW5jLiwgYWxsIHJpZ2h0cyByZXNlcnZlZC4AWFlaIAAAAAAAAPNSAAEAAAABFs9YWVogAAAAAAAAdE0AAD3uAAAD0FhZWiAAAAAAAABadQAArHMAABc0WFlaIAAAAAAAACgaAAAVnwAAuDZjdXJ2AAAAAAAAAAEBzQAAc2YzMgAAAAAAAQxCAAAF3v//8yYAAAeSAAD9kf//+6L///2jAAAD3AAAwGz/2wCEAAMCAggICAgICAgICAgICAgICAgICAgICAgICAgICAgICAgICAgICAgICAgICAoICAgICQkJCAgLDQoIDQgICQgBAwQEBgUGCgYGCg8KCAoIDQgICA0KCggNCAgICAgICAgICAgMCAgICAgICAgICAgICAgICAgICAgICAgICAgICP/AABEIAaoC0AMBIgACEQEDEQH/xAAeAAEAAgIDAQEBAAAAAAAAAAAABwgGCQEEBQMCCv/EAFsQAAICAQMBBQIGDQkECAQDCQIDAQQABRESBgcIEyEiFDEYIzJBUVIVGTVCVWFxdJKTstLTCRczgZGisdHUJDRichY2Q3OEobO0JVOCwVRjlcLDJkSD1VdklP/EAB0BAQACAgMBAQAAAAAAAAAAAAAFBgQHAQMIAgn/xABNEQACAQEDBAkRBgQGAwEBAAAAAQIDBAUREiExUQYTFUFSYZGS0QcXIjIzNVRicXOBgpOhwdLhQlNyscLTFCOy8DRDdIOisxZj8SQl/9oADAMBAAIRAxEAPwCN8YxmvD9AxjGMAYxjAGMYwBjGM5AxjGcAYxjAGMYwBjGMAYxjAGMYwBjGMAYxjAGMYwBjGMAYxjAGMYwBjGMAYxjAGMYwBjGMAYxjAGMYwBjGMAYxjAGMYwBjGMAYxjAGMYwBjGMAYxjAGMYwBjGMAYxjAGMYwBjGMAYxjAGMYwBjGMAYxjAGMYwBjGMAYxjAGMYwBjGMAYxjAGMYwBjGMAYyReyjsE1HWD/2VXFMTsdpu4IHb3xBbTLCj6q4mY9O/GPPLk9mvcm0unAnbgtQdG0zLY4oif8AhQM7TH/ek2PxDmfQsVWrnSwWtlEvvZld104wnLbKq/yodk1+J4qMfS8dSZQTQul7NouFau6wXlvCVMbMb/TARO2SVo/dO190RMaeaxn52tQvb8oEyD/uZsu0vRUoCFpUtQDGwgsBAYj8QjERH9Wd7bJiF1QXbyb8mbpNR2vqpWybf8NRhBeM5VH7nBfma5A7kGuz95Wj8tjz/wDIJz9/Ac136tX9fP8ADzYzvjO7cyjx8v0Ijrk3v/6+Y/mNc3wG9d+rV/Xz/Dx8BvXfq1f18/w82M7Zxtjc2jx8v0HXJvfxOY/mNc/wG9d+rV/Xz/Dx8BvXfq1f18/w82MbY2xubR4+X6Drk3v4nMfzGuf4Deu/Vq/r5/h4+A3rv1av6+f4ebGNsbY3No8fL9B1yb38TmP5jXP8BvXfq1f18/w8fAb136tX9fP8PNjG2Nsbm0ePl+g65N7+JzH8xrn+A3rv1av6+f4ePgN679Wr+vn+HmxjbG2NzaPHy/Qdcm9/E5j+Y1z/AAG9d+rV/Xz/AA8fAb136tX9fP8ADzYxtjbG5tHj5foOuTe/icx/Ma5/gN679Wr+vn+Hj4Deu/Vq/r5/h5sY2xtjc2jx8v0HXJvfxOY/mNc/wG9d+rV/Xz/Dx8BvXfq1f18/w82MbY2xubR4+X6Drk3v4nMfzGuf4Deu/Vq/r5/h4+A3rv1av6+f4ebGNsbY3No8fL9B1yb38TmP5jXP8BvXfq1f18/w8fAb136tX9fP8PNjG2Nsbm0ePl+g65N7+JzH8xrn+A3rv1av6+f4ePgN679Wr+vn+HmxjbG2NzaPHy/Qdcm9/E5j+Y1z/Ab136tX9fP8PHwG9d+rV/Xz/DzYxtjbG5tHj5foOuTe/icx/Ma5/gN679Wr+vn+Hj4Deu/Vq/r5/h5sY2xtjc2jx8v0HXJvfxOY/mNc/wABvXfq1f18/wAPHwG9d+rV/Xz/AA82MbY2xubR4+X6Drk3v4nMfzGuf4Deu/Vq/r5/h4+A3rv1av6+f4ebGNsbY3No8fL9B1yb38TmP5jXP8BvXfq1f18/w8fAb136tX9fP8PNjG2Nsbm0ePl+g65N7+JzH8xrn+A3rv1av6+f4ePgN679Wr+vn+HmxjbG2NzaPHy/Qdcm9/E5j+Y1z/Ab136tX9fP8PHwG9d+rV/Xz/DzYxtjbG5tHj5foOuTe/icx/Ma5/gN679Wr+vn+Hj4Deu/Vq/r5/h5sY2xtjc2jx8v0HXJvfxOY/mNc/wG9d+rV/Xz/Dx8BvXfq1f18/w82MbY2xubR4+X6Drk3v4nMfzGuf4Deu/Vq/r5/h4+A3rv1av6+f4ebGNsbY3No8fL9B1yb38TmP5jXP8AAb136tX9fP8ADx8BvXfq1f18/wAPNjG2Nsbm0ePl+g65N7+JzH8xrn+A3rv1av6+f4ePgN679Wr+vn+HmxjbG2NzaPHy/Qdcm9/E5j+Y1z/Ab136tX9fP8PHwG9d+rV/Xz/DzYxtjbG5tHj5foOuTe/icx/Ma5/gN679Wr+vn+Hj4Deu/Vq/r5/h5sY2xtjc2jx8v0HXJvfxOY/mNc/wG9d+rV/Xz/Dx8BvXfq1f18/w82MbY2xubR4+X6Drk3v4nMfzGuf4Deu/Vq/r5/h4+A3rv1av6+f4ebGNsbY3No8fL9B1yb38TmP5jXP8BvXfq1f18/w8fAb136tX9fP8PNjG2Nsbm0ePl+g65N7+JzH8xrn+A3rv1av6+f4ePgN679Wr+vn+HmxjbG2NzaPHy/Qdcm9/E5j+Y1z/AAG9d+rV/Xz/AA8fAb136tX9fP8ADzYxtjbG5tHj5foOuTe/icx/Ma5/gN679Wr+vn+Hj4Deu/Vq/r5/h5sY2xtjc2jx8v0HXJvfxOY/mNc/wG9d+rV/Xz/Dx8BvXfq1f18/w82MbY2xubR4+X6Drk3v4nMfzGuf4Deu/Vq/r5/h4+A3rv1av6+f4ebGNs5xubR4+X6Drk3v4nMfzGub4Dmu/Vq/r5/h5+D7kGux95Wn8ljz/wDMIzY5jG5lHj5foOuTe/8A6+Y/mNYWsd07X0xMzp5sGPnU1DJn8gCyT/uZGuu9L2apcLNd1cvPaHKYqZ2+iDiN83DbZ0dU0VLglblLaBRsQMATGY/GJRMT/XnTO6oPtJNeXP0EvZOqlbINfxNGE14rlTfvc1+Rp0xmw7tK7k2l3II6kFp7p3mJVHJEz/xIKdoj8SiVH4iym3av2Cajo5/7UrkmZ2C0rc0Fv7oktokCn6rIiZ9W3KPPIevYqtLO1itaNuXJsyu69moQltdV/wCVPsW/wvFxl6HjrSI6xjGYBexjGMAYxjAGMYwBjGMAZazu2dz+bcBe1QSCtOxpqzuJvifODbMbECp+YI4mfvmYHbm7n3dsi2Q6peCJrAW9VJxvDzGdpccT71AUbBH35xMz6Y2O9YjtlhsNhTSqVFm+zH4s0Bs22bzpzld93ywa7GtWWlPfhB6+FLe0LPnXU0zS1pAVKAFrAYEAAYEBEfKBERiIiI+iM7sYmM5yxHnxtttt4tnOMYwcDGMYAxjGAMYxgDGMYAxjGAMYxgDGMYAxjGAMYxgDGMYAxjGAMYxgDGMYAxjGAMYxgDGMYAxjGAMYxgDGMYAxjGAMYxgDGMYAxjGAMYxgDGMYAxjGAMYxgDGMYAxjGAMYxgDGMYAxjGAMYxgDGMYAxjGAMYxgH5zpappS3LJTQFizGRMDGCExnykSEt4mJ+ic72cRGDlNxaaeDRRLvJ9z+akHe0sSOtG5uqxuRoiPOTVM7kxUfOE8jD3xMjvwqnm5ch3yinfA7tkVCLVKIRFYy3tJCNoQZTtDgiPcoynY4+8OYmPTOwV23WFJOpTWb7Ufij0JsJ2bzqTjd94Sxb7GjWelvehN6+DLf0PPndU8YxleN/DGMYAxjGAMkbsE7Jy1jUVVdphA/HWjjy4oCY5RE/MTZmFj9Ezv7hLI5zYf3JezWKelRbMdn6hMOmZjzhA7wgfyTEk2P+9/FkhYaG21EnoXZSKHszvt3Td0p03hVqfyqXE320vVji/LhrJ90vTASsFKEQWsRAAGOIiAxAiIxHuiIjaM7sTjOcuZ45bcm287ZzjGMHAxjGAMYxgDGMYAxjGAMYxgDGMYAxjGAMYxgDGMYAxjGAMYxgDGMYAxjGAM6Gs6uqulth7BUhC2Oc1hQILUsZNjDKfKAABkpmfdEZ38jXvLhv05r8fTouqR/bRfgEVWP5S7ogWSqddXJRMxuNPUSXv+Jw1JVMf8UHx/Hk4dnXa3pmrp8fTL9W8qJiCKs4GcCmN4FgjPJZbfeHAl+LP5hsyboHtHv6VZC3p1t9KyHyW12Estt95E4j0sXPzrOCAvdIlGAf1BZUfvSfyk+idL3fsaxNq/fAVm9NWFiusLBEwFzWmPxpqKGCtYM9JDyJfIeXldwHv8q6pTNG9Ao1qsqCaI7Qq4qJgZsIjfcSiZGGp+8khmJKC4rqr/ACgPdq6etdRWLg9V6bp9u2avbqNiYcSHAAqI+ST+JkgWBSmxAevlPiDDBEQNn/Y12u1Nd02rqlGSmvaXDAhkQLFzvImtgxMxDFnBAXEiHkM7EUcSLOMgbu69N6Z0303UH7IVfsdXQLJ1Bj0jWMWzy8bx5KFbOYfKNi2kj2jl6clLoLtIoaoiLWnXK16vJSPjVnA4IMflBMhM8TjeNwLaY3jywDJ8xLtR7TqWjULOp6g3wKlQINzNpKfMoAAAB3k2MYQLAI+UZDGeN2k94bQ9HYtWqarSotaPJanvAGkG+3Pw9+cL3iY5zHDeCjl6SzAO9loOia90vaXc1apU060KmI1SLKCri5bIagwZJ+E+JMOMqA+TR5CJDOxCBgHdu/lNtF6l1WdKRVvU2mBnVZahPF8LjkYTCWt8JvDkcDyMCEC9YzxEriZqX/k7+61pCddm5X6j0/Vn1Bb4CKu6mQE7LOwS2n4hRsfD0QQRz+WXIeO0brPtAoaarx9Qu1KKd9obbsKrrmfqwbSCJn8UeeAZFkId6TvcaV0lVTY1KXMZZIwqVKwib3kuBlhRzNawUrmHMzONuYxAnJCOe50b3pOm9RcNelrml2XnPEEruIlrJ+ha5ODZP/JBZV3+VJ7F9E1VFB1/Xaei3qkPitFkhOLSGyMmPs4lFieDFDxcuCEOTBkCkx4gTn3SO+Tp3V9d7qaX1XVWCuxWscJMeY8lsA1zIsWcQURPpKCAokBjiRWCyjH8mB2CafpVGzZparV1Y7LBh76hRKwJY+hEhvLFyuDIvjOJl4m/EYIRy5nVnWVSgkrN61Xp1w2g32nLQoZn3RLGkIRM/NG/ngHt4zDegu2HSdVg50zU6N/w9vEinbRYle/u5ioykN/m5RG+ZRevAoCYwxWsI3I2FAAMR85EUxER+OZwDtYzHumu0Chdk4p3alqQ+XFayl8h/wA0KMuP9eegrXUEyUw5UuGNyVDAlgx9JBE8oj8sYB6OMYwBjGMAYxjAGMYwBjGMAYxjAGMYwBjGMAYxjAGMYwBjGMAYxjAGMYwBjGMAYxjAPzM50tU0wHLNTRE1sEgMCjkJAUSJCUT74mJ2nO9nGDlNxaazNGqzt77Jy0fUW1dplBfHVTnz5IOZ4xM/OSpiVl9Mxv7iHI5zYf32ezWLmlTaAd36fMuiYjzlBbQ8fyREC2f+6/HmvDKZbqG1VWlofZI9jbDL7d7XdGdR41af8qrxtdrL1o4Py46hjGMjy+DGMYB6fS+hFas16w+RWHqRE+/aWsFcT/Vvyzbzo+mglSlLiBBQAsBj3CIDAjEfkiIjNaXdK0eHdQafExuKyc6f/wCmhsjP9TeGbOojLRdUEqcpa5Ycn/08zdVG2Odto2bHNCk5+tUk1+UPefrGMZNmlRjGMAYxjAGMYwBjGMAYxjAGMYwBjGMAYxjAGMYwBjGMAYxjAGMYwBjGMAYxjAGR73iA36f1yPp0fU4/tpOyQswTt4DfQ9Zj6dK1CP7ajsA/m77LVxOp6cMxvE36kTExvExNhcTExm4bvdfyd+i6holm/QqqoanVqMtgyuMKXYlS5aarCwjgXigMxDNuYHxnkUcgLT12VltqmmzO0RF+nMzPuiIsL85zdD32++3pWj9P2aNW4i1q96kdRFes0WFXh65Sy08l8hTCQkiWB8Ta3jEDx8Q1gage7b2ju0nXdLvpKRlNxMHETtzQ04U9c/N61Ecer5+M/Nn371b+fU/UJ/X1nUj/AErjS/8AvnU7u3QTNT1vTaagk+dtJs2iZ4pUcMcU/RELEtt/vuMffZ2+9VV4dTa8H1dXvx/ZZZgE59pHTd9/Zr07aU5k0aOo6iFuvEzw52bb4q2Dj3bJIWpjf3Fb8vlFmQ/ySXbVOndQlpzD419WTIQMzsPtVeCaqdp8omVS8PpIvDj6uW17gvZcnXOzlmlP28O6GoJgpjfwmTcsEl0R9dLoBw/8QDmpOlZuaFq0FIyq9pV71BO+w2Kj9jAvduPNchP0xgEw/wAol2lfZTrDWWiW6q1iNPTG+8CNEBrs4z9BWAcz/wCvJM7QeibFPss0wnGyRs9QJtrWczMKB1TUOELifkgxcC7aPTzaU+8inKndH6A/V9Tr195J+oXBEz988nt3a2fybmc/kza3/KkdIBR6E0yssYAE6rQARj3DA0rwjH9UeWAa++4NrE1+rdJdHKfDm4UwHyiiNPtzIxHzzPuiMwbt97wWpdSag3UNSebCki8BHKfAqIktxr1w8oBYxtEltzZMczkiIizOO4DP/wDGGif9/Yj+2lZjLtd6v+SHl733+nHKT4xE09NfuKRMpkiiq4InwgmfkpMJAfdBrHiIgVF7q3cz13Vmabq1MFxTC8kycLxhqorWIlhwA+cFErLjHIS34z6YnlksfyyyiHqHSoPzL7AV4n8sXtQ3yuPZl2x6/wBFas0ENbVsVXyu9QYXKs+Vzsa3qiZWyJH5Dg9YiXJZjvvk3fyp/aGvVtR6f1JUSIXem6lgRnzkYbauMgZ/HHLacAlL+RZ1oU2OoTYcAkK9FrSKdhEVRfIjL8QjymZysHfK71t7q7V2EJunTlvlOk0BgthXM+GDZSPy7dr5ZzPM4k/CGeIDGe73S+qWU+neumqKRMtLo1+X0Dbe+ozb6JlbjiC+bMP7imjqf1Zoy3REhL2FEFttJrrONfv+eGCMx+OMAwDsy7SdR6e1RV2oTKt2m2RNZiQ78S4urWFztMrPaQYE+ce+OJCJDsE/lZu1b7J6F0nartOKuoxatkqDmAMvApkmWBE7EaoccRyj0eIW3yiykffE1FLeqdfOvxlP2TtAEjtIl4bJURDMeUxJAUwUe/35PXfMoMV0Z0EDY2KK9ydvoEkaeQxP44iYifx4BUTo3r67pxsbQtvptck6zGV2EphIZIka/EDYogpAd+MxPlt7t86nT/VlmpZXcrWGptKZDlvWZC0WRO/ODjz3mffv8r58tX/JddndLU+pDTerqsrCi1oA5YsEWC+uEHAlExvAmUctvLlnQ/lOOxeronVLVUlAitcp1r4JWMCtZMJqGwAxtEQTaxs2jy5GW20eUAbkO6R22f8ASDQNP1MoiGuTEPiPdFhRSp8D/wAPirPb/h45Mma+v5GjqGWdO2UzO8V9QeER9EEtLto/rbM5sFwBjGMAYxjAGMYwBjGMAYxjAGMYwBjGMAYxjAGMYwBjGMAYxjAGMYwBjGMAYxjAGMYwDoaxpoOU1TIggaBrMZ90iYyJRP5YmYzUN1RoRVbNisXyq72omfdvKmEuZ/r25ZuGmM1i97XR4T1BqERGwsJLo/8A6iFSU/1t55CXrBOnGWqWHL/8N1dS62OFtrWbHNOkp+tTkl+U/cRBjGMq56ZGMYwCwHcaXvrw/ip2Jj8vJQ/4TmxrNdHcX+70fmVj9pGbF8t12dx9Znk3qj9+H5mH6jnGMZKmrhjGMAYxjAGMYwBjGMAYxjAGMYwBjGMAYxjAGMYwBjGMAYxjAGMYwBjGMAYxjAGYZ2zhvo+rR9Om3o/tqtzM8+L64mMiUQQlEiQzG8TExtMTE++JjAP5Xczjs27F9U1dgq0+k+zyKBlgLLwQmZ2+MdOyg2/4i3+iJz+hhvdX6elnjfYihDN9+UVURO8/jhe+Z1oXRFStEChC1xEbRAjEREfi2jywCnncC7hQ9OAVy7IO1B4xBHA7CoI8/CVy9XHl5kcwJHIjuI8REdU/fZ0tiureoYYs1yWrXWjBiQSS2PM1sGCiNwYEwYnHpIZ3jyz+jiIzE+reyvTrxCdunXsGG3A2qAyHb3cSKJkf6sAq1/JN1TDpGpBgQbttEPKJGZErTiEo3+YoneJ++jzjKT/yvvd/LT9cXrKFzFTV1x4xCM8AvoGAZBTHkMvT4TY5eZmNifPiWbm9H0RVcIWkBWEe4RjaM6/U3Ste4kkWkrsJONiW0BYBflEomJ/swDSR/JTdjpah1D7aa5lGnKKROYnj7Q6OAxEz5TMJ8XePfHJf1hy8v8sNpTGdIrlazMU6tUYyQEihSoRbDxDkYnguCYAcy9PIhj3kOXB6M7NaOnjwpVk1g8/SlYrGN/fsIxERnvXqINAlsGDA4mCAoiYkZ8piYn3xOAfzpdy1FqepNPKmEnYWNw1bRyEWRRsioj+aA8UgjcvL1RH32dXpvvXdV6VLUJ1rVK0wxnioa9h8Gkcy3dVjnC2SySkthEufKZ88/oO6d7HtMqHLK1Kug5neZUoA3n6Z4xG85jPaH3WOn9Vd7Rf0mjYfPlLmVkkyYjy2k5CSn+ucA0EdmfZnq3VerSIy+1Zsuhl242SZ4cML1ucwvfO2/EN+R8eIxsPlY/8AlUOzItMt9PIFbIro0JVVbJGeEkizZ3X4m0BLAAgmRjziCGdtiHNxnQHY7pulrhdGoisA/JBSwWMfkEYiIz2uqejqt1fg20KsK9/ByxYO/wBPEomMA0vfyavZEWtUurNNkeI3tNVWU44LwgtRFo0FMxE7+E3wWSMee3H6w5T7q3pLUNGvHWtLfRvVGe7clNWYz6WKYMxuM7cgasuJRsQlMZ/S30r0DTpDxq11IHbaIWAjER9EQMREZ53XfY9pmp8fb6Na1x+TL0LbI/k5jO2Afz891ju03epdSUlamTUBwFdsTvAwvlBGsT+dzB8ogdyHlznyy7n8sd0mNPTOlkLDipJ6iv0jsAz4VHiPl5RvAFtH0CW3yc2cdIdndKgELqV1ICI2gVgIREfREDEREfkz99b9AUtSQVa/WRbrlMTKbCgcuZj3TwYJDvHzTtgGlz+SBGf+lTJ2nb7GPiZ28ombNTaJn8e0/o5k/wDLWVJjqTTT2nYtEUMTt5TIXr8zET9MeJG//MObXOzrsF0jSZKdOoVqnLzmEJWqJmPnmFiMTOeh2idkem6sAL1KlWuguZlcWUKdATO28h4gFxmdh32+rGAUK/kUd/sTqkTE8Z1EpiZjyn/ZqsTt/ZmyfMb6L7PqenKhNKuuuqPKAUAgMR79oEYiIj8kZkmAMYxgDGMYAxjGAMYxgDGMYAxjGAMYxgDGMYAxjGAMYxgDGMYAxjGAMYxgDGMYAxjGAcZrl78q9teL8dOvM/l5NH/CM2NZro79H3en8yr/ALT8iry7h6yNo9TjvwvMz/SV8xjGVE9ZDGMYBYPuMfd6PzKx+2jNi0Zrp7jH3ej8ysftozYtGW+7e4eszyb1R+/D81D4nMZznEZzkoauGMYwBjGMAYxjAGMYwBjGMAYxjAGMYwBjGMAYzyqHUldrn11uWb6sqiwoSgmIlweIqGjHmHiL9Y7+8fPPVwBjGMAYxjAGMYwBjGMAYxjAGMYwBjGMAYzparqa0Ka5xitKVm1rDKBBa1jJmZlPlAAMTMlPuiM/WnaiDlrcohYpoCxbBncTAxggMZj3wQzExP0YB28YxgDGMYAxjGAMYxgDGMYAxjGAMYxgDGMYAxjGAMYxgDGMYAxjGAMYxgDGMYAxjGAMYxgDGMYAxjGAMYxgDGMYAxjGAMYxgDGMYB+ZzXR35/u9P5lX/bfmxfNdHfn+70/mVf8AbfkVeXcPWRtHqcd+I+an+kr7jGMqJ6yGMYwCwfcY+70fmVj9tGbFozXT3GPu9H5lY/bRmxaMt929w9Znk3qj9+H5qHxOYznOIznJQ1cMYxgFc++1pK7VPRKThhiLvVGh1nqmZgWomwTXKLaYnixaiiY392Yx192Z1ulb2g3dD8Wki/rVTRtQ0wHvZRtI1CGgDxqtaa02qjQBouQIF4XiwXIeQ5Jfea7N9S1BekM0uKR2NL1urqhKvvfXS5detcV4cNRWtHB+LYUcbr47AXnvxgvJ0fsi1jUtRpaj1C6gCdLYVjT9J0ubLURdJZKG7ct2loN7a6mMBCgrKACYR7lPlgHka32wjQZ1vqFTS4dY0YqE2Zi22J1FaNKrXWFAEti6p1K1hoQKgLxpWMlIyXpkPWu20fslounU1DbLVUWL7GwyQGppldSyi2QwByftFh9asoJ8OJIznl8WQ54/QHZHbr6n1JNkab9L1t42xOGu9rgp0+pQbUdXlEJhMDWYUOCyRFDBjwx9XHGO6R3cb+je0O1ayi3aCtT0fTzTLCFGi6YJRVApYtcw97GMc8RiQ5CnYi4+QHmV+39GmaHrmsV9OEPD6k1CoYHdb4DrH2VHSy1G1ZatnsdUiiHuFajXXASgYL5Wez2sdc2Y6ce7W9NoP8a9pdZdfTtUstq3E3dR09KLK7cVaj1SDHyzw4WUH4A/GELvT8+hOzDXtM0/UKK62iXwbq2o2lBbt21hdoanbu23rtRGnuCtYCbCVwEBcS0RdBSvkBZi2nd1nVF9Nt01ZUFWY16vrVLTxsWi0ylXr6jUvBpKrZVpsQn/AGdhQwaYiDXlAqFYxgEodd9tF/7KHo2i0a127XpqvXnXrrKVSqp7DXWRBoqXWttWfBccB4SwWAicmXLhmFdR980laVpGoI0l9i1qWsnoLdMGwsbFbUljfWxMNkPCYI26PhS4vCCEt8eePHhns6t2da/U1WzrGlL0l7NW0/T6+pU7tu3XWi7Qh8Js1LSaVg31+FkwYltdBnCwODGSkB6HTPdes119OAdivYPTtbv65qzihips3L9bU+ZVFQLI2C3fHgLTXslUTuRekgMv7Du2S9ft6rpuqaemhf0qaRsGtbm7WdX1BbWVzW40Vjhg+A5bQJXyhEoLYth+/b1r9dTunkvqe1zb6grJRPtDUeyuXTv2xubK/p/CivIeAz4s/F3n5IwXz6T7OL9XqTV9R/2VmnatW06JKXNG5Xfp6nJhUI8AktS3xvE8T2lZAXKPDZy5Dz299m9+67Q7eneym7SdUm4aLrnV0uUyjcpHs5Ne0YtV7VDAHwdj4lHIfLAPG0/t41G1r17SqNHTyRpVimq9NvUmV9RNNpSXHdp0gouWyskHcRlthXtDFmEEucmHqzX4qVbNqVsbFau6xKlRyayErJkrWPzsPjxGPnKYyA+vexvWdR1vTbh1tHqBpepRYVrFa1bnVG6YJM5aWyrNNa9rSzhT+d9qY+MYCxIhEZ+6mm1Fd004RNrhPs8WpYNeWR8mHEqDYIT7pIAIo9/EvdgEL9lPb1qV7SH60+npQ0505moU5o6s26UyCibNO5yoIFLl7cGmknwBiwJDcfVivRne41R6dD1K3oa6eja5Zo0kO+yPi6gp+oRA1bDakVAT7G98itZDbJ3hGtxLXyJQ47qvZZf0vTuttXs19O0td7QbR/YzS7L7VUrlaleJ+pMN1SkK7NqGKXIIQPMVCTDYfqz2OzLsh1zUK3TKNUjS6ulaIOnXVhRfasWtQsUaojp/ii6tXXRSkpF7Vgy4RuUIQYj6sAWOolVi7TNQcn2lFaFwdeWEmLAVOlqTWV/GDc1eLLTX4geoOfKPPPl2s9Wawi90RU0augEvCw32R2qW6y2xW0d0xTtGupaJlauJraLWC0mWFriVr/pR9/qju96m9HWlATpDV6jh76VqXP8AaFWX6XT0/wBntV4qysa4FUk/HVYacgwfid+XHvda9mevOPpvU0J0r7I6OF5diiy7aGkYXqw1oJN0aBuk0QsDmDpjBwTQifkkQHhI616iPrVtZaKZUkaHpZWEFq1sUKi3dsePcUiNPJbbwyh6FgYq511JKXr8Y1K/DO8RX0jQdd1xGmFwr9TXaz667TWsuMnWlaS64qWAXBrY+OGmAiuCHw4IeUnmcF2c6xX6jPVqw6c+pqNDTaV+H2LCX1JoPuNYymsKrl2Qcu2UCDXV5FojMlx5RmDVO7Xq06XZ0hpadKP+lCdXU+H2CZYol1B9mrIWEzUgE2RXshawY9TTguTExsWAZr2Vduup2NXPSNW0hemuZps6vTlN6Lu9YbK6rUW9kJFVtTHKmYUTVFyLYy8PkWFdone81FdPVtW0rSKtrRtGOyt167qJ1DvspnKrY6bXRSt81qcMpGy9qgaYnAjsPIpK17s2vx1PT1mv7IypOku0q2DnNVYRBXF3BfWEK7VvkpX4RKYyvx9JwZceBVU7duyjqDSulregQ3SvsSeoCmraFlo9Wuhqesw9On+xykUC+W2ZBrxst5V1lMK3IjWBsGQcyMTMbTMRMxvvtMx5xv5b7ZVHS+8mnS+maesVNIYQX9dsVPsem2x7iZa1m7WJyGPj4xtlq/HGtPhKGXeHBiICWW0yqXRfdp1ZWk6HpdktO46L1EjUfFW+wc2qSLNu3BkBVAhVyXPX8RzYr4sj9o3KAEDOuy/tu1Wzf1DSdS0qtQ1KtQr6nVBOoTbqvr2zspWDnxVUaWqsViUyQS0Z9RhBQI+JG3dh7b9Tr9N29a14VTp6PszeG0GoWLt1kL1O5tVhD6iQWpQh7NU2tM5gKfQjlwXLi+ze+rqlmrLiqzT7mk1aFjxHNXcrMpWL1hcoUNdinreVsILnYRIcDn4z0iUb9Hd2jUy6Z1DpXUDorqzWs16OoVXPfYaT7LrKrFqq2tXWnwTJXJS3v8UhZsa44kQGU9L9vmqhc0pOsaRXoV9ck10G1tQO46vaGsy4FTUVHSqgtrkKdInWY8BYuVz96eSd2tdpaNH0+zqNgWMXXEOKUxBOe5rARXrpGZiJbYe1SQ3IY5mO8xGRXpPZt1BqOoaRZ177FIr6KxtsF6a+1ZLUNQOq2muwyLFWrFOulVh5igZsnLSGJZxH1Zf3muxmdf0a1pgmpbGFWcknhLK8uqWVWlrsLHzOu0k+C2I9XhsKYjcRwDFOju8pZG7fo65Sp6cdHSPs25lPUS1FdWnBmDEXpmpV8G0qFk2OENU4OUgU+GXLwtO7zmskei226JWq6TrmoVqNTx9SZOrCu2l1hFp9NdE6qolCSbNb202hyEJkZ5cez0n3eLDNF1nR3aZoWgJ1KiyoEaGTXyTXIcllq0bKdDxIiTCVJ4sPh4kE71RAx11HoXUUap0PW1idKUirqpLWrTWWrE231dE1AvbWlYRWisK1qIV1gh/nYZJN+LASAsNpHbXLLXUlcq8AHT5V4hsN39ph+lp1Itx4R4Mr8XwvlM5RxP078cxa13m3TpvTzaunTa1fqSom1T0yLMJSkJqKuW3Wrpqnw6tJbgAmDXNjWMSAq3Z6cb6+7BtfKx1IrTX6aun1NCydbsnZm7p8xpydNeKaq68pteKpIkkztI9nIimRdxES6mk9ifUVZPTNxC9H+yehac/SH0mXLfsVqm1NNcOTcGhLa9mGUVM4TTYHBjF+IXETID4dd9s+oWtA66qalTqVLejaXbQZUbbbddxXNFK4qQJ9SowZEHqgoIJ3kvL5Pqsl2e6f4VCir3eFTrL/ACcEgP8A9srFV7svUDanWFO7Z0xhdTV2PXaSdlfs15tJVMaRIJBTNCuChAbXjE4wEZmvyIoG0XRxWpqp9tUhNrhHjKquZYQBRMxELc1NZjI48d5JIerlHqiORAVlb3wtXZX1nUK3T6Wad09e1SrqLm6nKnWV6W9o2GaYmKTIdK6oDYL2llYJOTQEslZHkmdc9vj/AGqnpuiUV6lqFyjGpzNmzNKlS08y8NNm28UWXTL27rTXTXMz8N0yS4XuVdexroLXtZ6et6emdMq6RrWq68VrUPHsnqcU361eXcQul7L7NLrAia12SucASzeU8x9U5dW9lGs09Y+ymgjpbQsaTV0l9XUnWkRXii57almuyuizLQgbTAbWLwefAJhsSRcQPJb3tbFfpzUtauacuLGk6qzS7NSraY9bTRqqdMe2s0qqml5tM1qJPI5WITI+JuOMdv3aR1TGnaScUamm2L3UmkIWhesWRfFZllLV1bjkUOIzZ4Nr3ATL1KTymPauRBn16Y7sGtBoVzQ7b9PsSzX6uqLvwx6ytonXEaxemzW9mKKz9lmtS1ueBkWxGoR5FL3eN7Nbuo19PPT5rTb0zV6WqrTbYxKLPsniwVc3KVYNMmLZkGClnExHeNuWAYp1h2+awjUNO0ZWn6VGq3KDr7It6s+vSLwHwmaen2I0xjrlqYnxigqyIUr1zBQXpn2kwyAJYEAyQGTCC5wBzESQQew8oGfKD4jy9/GPdlbO8N2U6/rlKKJ0NAmWJUa7xX74WtF1KN5K5RkNPk3zWnjKDF1E2kPFgCBFGWR02sQLWBnLDABE2TERLCEYgjmI8ok59UxH04BW3XO9nfivqGsU9ITZ6e0qzZr2bRXyXqFhVFvg37tGlFRiGVqrAdtDrqm2BUUxC/SJe/2gd4bUA1pWh6Ppib9mxpSNVXasXDq00oZZsV2HaIKz2QA+EnwoSDWtN+3ABUbMwd3dx18NMu9MIbpY6HcsXojUibZjVK+majbbatU/YYqlWdaiLD0LtTdWHCROU8h4FMnT3ZQxOv2dU3TFUtE03SayxI5cE1LeoWGyYyEBC5G0gQmGGRSBbiPEZICR23YWuWOkFwASbS5egIAeRzyKI9I7TPKYj0+fllY/hZ6qxWnamjRa4aFqWp6fp9R1vUGK1OyrUri6iL66K6LUqTPieMKnW4aaeJ7L5bDY7rHpsbtO1TMiALdZ9YyH5Qi9RKIh93mMFvGUm6t6M6irB0TouonpI1aGu6MhH2PZadb1NekqY0bDUuQldNNetW8Z4gdn47hsax4+IBOw9vup2df1HQ9O0pDR0p1CbuoWrpoQFW5URZ2WC6rmMuT4jhWiPiuKObHK8ZY5j2ud7O/FfUNYp6Qmz09pVmzXs2ivkvULCqLfBv3aNKKjEMrVWA7aHXVNsCopiF+kSlLs17NXU9T6hvOJRDq1+o+vCyOTBFXSqVGBdyWECzxUOOBCWDwIZ57kQjCju7jr4aZd6YQ3Sx0O5YvRGpE2zGqV9M1G221ap+wxVKs61EWHoXam6sOEicp5DwICb9M7XPG11mkAmCUOi1NXG3DJnlFq5bqinwvD8o41vEhnierkUcB48ijnX+9vNfpdnUv2Plor1BlP2JTt2sUGvFosMUUqjm5gj7SKZEYki8Pn9/nd6w7J9Zr6wepaHOmyNnR6ukMDUGWV+xexWLTq9tAoQ72oYG0YFVM63MhCfGCJLIM6w7LtX0fpHTNCszQdYHqjSK1GwLrBquw/X4vLfeXKFlWkjn45KTs7CJTB7kIiBPfSPbvqg6mjTda0hNAr9G3f06ad+dQIvYZr+00rIzVrQNsAsrZBJlqT9QwZSPIvr3Z+3HUdfSGoMp6cnTLKjZXOtqbLd2u4GCPseoVpooUp/CTNnhWD8E1+HIFyg46ugdmuuWdTPW9TjTEW6em26Oi0Kr7VuoltslMfbu2mV6jWS461dXhprjC64l5kZenp9jfY7qlfXNQ1m1W0vTIuURrupaXbs2k37wv8WNUtS2nRBbRXyQPBLGmLWSxhTA4BYrGY90Gy/NOvOpjVC/If7SNEmnVhm8/0BPEGyG23yx33398eeZDgDGMYAxjGAMYxgDGMYAxjGAMYxgDGMYAxjGAMYxgDGMYAxjGAMYxgDGMYAxjGAfnNdHfn+70/mVf9t+bF810d+f7vT+ZV/wBt+RV5dw9ZG0epx34j5qf6SvuMYyonrIYxjALB9xj7vR+ZWP20ZsWjNdPcY+70fmVj9tGbFoy33b3D1meTeqP34fmofE5jOc4jOclDVwxjGAMYyNug+2ULdrXarkxUPQ7gIaRNgxZWdSRdRcmZWvwhYtpxK558PCKeZcthAknGQP2Ed7SnreiXddlLKdag27DwaXI4RUSNoHzuCtvHpMTZgNvTDNuZx6ykTsw68O9pdDUbKIoHdrosTWN0MlHtIialE2Vp5M4mESPAdjkg8+OAZpjGfD2kdpnkOw7xM7xtEx74mfm2+fAPvjOpe1Fah5MYCx3iORkIDyn3RuUxG8/NGfSxZEBkyIREY3kiKBGI+mSnyiPx4B98Z+BKJjePOJ/smMwvSe1qo7VLukBzi1Qr0rDiLw4TI3isilayhksJo+ynJiSxgYJexFyLiBm+MijsY7U23z1cbJJCKmvXdMpwPoJiKqq0+qCKfEb4pu3kIH08fT6eRShYtiAyRkIDG25FMREfN5zO0R54B53VfS1e9WsU7SodWtJYiwqZKIYloyDAmQkSiDGZGeJDOd+lUFYAsIgQARARj3QIxxGI/JEZ2M6zrgjIwRCMnPEYKYjkW0zxGJ987RM7R80YOUm8yO1jOM6rdRWJiuWBDDiZFckMGUR75EZneYj59owcHbxnyh0efnHp+V5x5eW/n9Hl55+fah8p5D6o3HzjzjbfePpjbzwD75HNXu+aMGoTqkUVlf8AENwvYxzfDcyJFjkKa00oacEUSxK1nPKfPzzOY1VWwF4i+LJgVlzHZkz7oCd9imdvKByNu0PtMsVdc6f05fhRX1INYbbIxmThen1UsXKz5RC/jXBykoLcfL0+/AJWxnwrWhMYMCEhKNxIZiRmPpiY3iYz8U7wMiZWYnETIzIlBRBR7xmYmdpj54wDtYyMe7t2iWNV0sbtnw4M72rJGFDIj4FPVrtKvMxJF65SgJOd/UUlOw+4ZOwBjOqN8Ocr5j4kRBSvlHOBnygpHffafp2zh+pLD5bAH1QEciGPWXyQ85+UXzR75wDt54Ws9GVrD6llyoY+gxrajJkolDHoZWaYxEwMySGsX64LaCnbafPO7rerhXS17J2WlZtOfLfisZItt5iN9o8t5yGOu+8RJdPUda0yIidRsaCNddoBIwVq+o0UELlqaQi2KtlkxENKBPjO5QOxATvjOtVuge/AxPiUgUgUFxIflDO2+xR84z5xnI2xkpDkMmMQUjvHKIneImR98RO07TgH2zjfBn5ZgXZF1m6+q1YZAQn2+2mnwiY5VqzfZ4MpmZ5EblNPeOMcCGNvLeXEd0aUpQlUXaxaT8sscEuPM35EzIujOi6unVl1KShRWVLJWoZIoGWtNzJ3OSKeTWGc7l7yz3s6lrUlhIQbACTniEGQjJl9UImY5T+KM+0MjeY3jfaJmN/OInyidvo8sHSfXGfCLQ+XqHzmYjzjzmN94j6ZjafL8WfD7LK4wfir4SXGC5jxkpLjxgt9pnl6dvfy8sA72Mivt27SbGnToo1oXM6jr9DTW+IMltXeFlr5DYh4s8OvPE55RH1SySql4GRyWYmO8xuBQUbxO0xuMzG8T74wDtYzqovAREImJEExBiJRJBMxvEFETuMzH05HfY72iWL9jXwdC/D07W2adW4DIzKVadp1gpZMlPM/HtOjlED6YGNvTuQEnZHPQ/d90fTrJ3adFa7RiYeOTHPYC2FBMWkrDW+zqMhiZUjwwnaPLPQ627WKun29Mpv8SW6tZdWrSHh8AJFV1xjHybAkFeGgxgghk8yCOOxEQ5XZ1BYQJGYBBTAjJEIwRF8mBmZ85n5oj34B28YzqtvrH5RhHqgPMoj1l8kPOflT80e+cA7WeD1R0ZVu+zxaTDoq2kXa8FJR4dqsUkh0cZjclzO8QW4/TGeqFwJKQghkxiJIIKJIYn3TI++Inbymc5baEZGCIRk54hEzESU7b7DE++domdo+bAOxjOvbuAsZNhCAD5kRlAjEfTJFtEYVcCYGYMZg9uMxMTBbxvHGY8p8vPywDsYzq1LwMjksxMd5jkBQUbxO0xuMzG8T5TGdiZwD9YyJel+1dtrqO/pqyQyjU0jTrYmv1Mm1bt6ipkS0SkJXCqqtg47iXKZL70c46K6gfYrJbbrRSsMhnKr7Qq1wgWEI7OT8W3muAZ6Pk8+M+Y4BkWM8HrHXGorWG1kRbsqSbFVJeqtLziJ4Ll7fi0wyY4+Ifoj589Kb0AvxGyKogYJnMxgVzMecEfkPlPly92AdzGRT2D9pr9U+zRN8KV0tdu6dVlUTEFWqrrcSOeRwZy1jdzHjExx9Pp85OrWhONwISiJkZkSiYiRnYo3j54nymPmnAOxjGMAYxjAGMYwBjGMAYxjAGMYwBjGMAYxjAGMYwBjGMAYxjAPzmujvz/d6fzKv+2/Ni+a6O/P93p/Mq/7b8iry7h6yNo9TjvxHzU/0lfcYxlRPWQxjGAWD7jH3ej8ysftozYtGa6e4x93o/MrH7aM2LRlvu3uHrM8m9Ufvw/NQ+JzGc5xGc5KGrhjGMAZRXvRrsJ6kdpFSGBPXWl0NOJwRM+EWnXGr1R+8e6V6Hbbt/wASw8/kjl6s8u507XY5NhiEssVobFd5qA3Ih8CLoS0hk1Q4RAWQBDzgRieXGMAoj2wdOez9QXekaq5XV6unp+wIqiRXX0/T1vr66MT8gZZQ0qqnb5/aR+VJen1+2jSn6p1Tqunt07Rr6aGj0Y05Wu3jrUaSrg2ZuamrTxpWYuM8QArE4GVjrjWWuGL8bll1bHTFY7C7Z10FaSs1JskpZWFKbMS1a3SPiLWyRGSADET4xvHpzw+uux/SdUJR6lplC+SJnwSuVEWSVvO8wEuWcjEzETIx5FMRvGAfPsY6T9g0jTKXtU3vZaNWvFyZifaYUkAh0TBF6GRHIPWfo4+s/lFSPtF67q1eiesFtetb7/U3UVMEEYi3xbetMDh4c+e4VZmyXp/ohI58vPNhddEDAiIwIjECIjERAxEbRERHlERHlERmGan2H6K91iy7SdNbYtqJFl7KNYnWEnHE1OaSpNgHHpITmeUbRPyRwCD++F0Qtx09WFWlasGh1brreg6oSZRao2IDxLdbxfEUm6n2RgIc9LFHBODkuR9Ufdq+qDqOp9LUKml0Leis6dLU9N0rVrk6bp7Xf7KuvD0+yXwts0yiwZGjKi4eOxkT8Tlp9a7vGgWQqhY0XSnhSWKqgt0+qwayhncVIglTC1RPn4YbBv57Z7XW3ZdpmpqBGo6fTvIWUEtVusmwCyiNoJYtAoCdvTuHH0+XuwDEO692eTpei1qntNezxbcdE05maSPaLjnzTpciMvZacsmsrnPLirzhfyBifsy7NtHPrXqmy6jp8267NBOo1iEeOt7qT3NsIIh8QWuMtjaHqMk+ZFK/TaHRdETWUtFdKkIUMApKVgpSwj3AtYQIAMfMIjEZ4t7sx01t1WpNoU2aggZBN46yStqGYkZFdiQloxsRxECflBFEfKLANfPWvYtRPpvq/qJq/E1Iuo9YdptwjKWaaNbX5rImmW+1b41ZuaauMs5bFJQAiMtd4WX6j1arTz0/StUq1tCC7SqazqE1tO9qfbsotagVcaV0dQZVUlKfCkRKuDWFEjLxNdtp6FozWbS9jq+xv8bxqvgK9mbNgzbYliOPhHL2sNjZIZ8QzIi5SUznha/2E6Jar1qlnSNNsVacQNSu6jWamsMREcULNcgoZiIiYCBgo8pwDod3LoT7GaHptH2sL3gVoiLSp3SwTImjFeZNkzWVBwlG5lPggveZnfMJ7Ti1BlyrL9P0Y/AuGWlHY1Wwhxtjl4ciqKexOlUQcpEmxBDvHLiJZO1GgClgpQCpaxFa1rEQWsAiBAAAYgRERiIgRjYY8ozoa10pWsGhj0KadZnioNgCRJZttzXM/JLb54/FPviM+WsTOsdpVnnlNY5mt/FYprNkuOnHB5+1bPz0jbtmgCuqSmxMl4i0NJ6ojlMBxYaklO48ZndY7TvHntymp/WXStPT+qA1O5U0vWamt6zp9RFw4U3V9B1dABXrJQRc5KjD63MwQaHVmsdJgwRLlcrMJrdimjhenUw0rTh1IpIpvDSrjbkziYM5sQvxZYUTMEfPmQ+mZ2z63sDDnLKk3gli9CxwXEscXh5Wyuup9o1TTi7SblqwpJKegYBhiJlMdMacuqIBMxMlZbMrVtHrPyjMYudmiL6ey7TLQydf7GsOyqCIYemt08jkhvGY5V3MJYOWXoasiWQlDCjJL7y3ZXb1RtqvT6b0w7VqoVJfU1xlLxKSbSvBsMWuFHqEuQs2wkA4hJ8Z8QYIhKe9E6BqoCiMIUZ6ciK1R5qAnIXKlpOFMmOavFWoBZwkecCMTy4xg+SgPU3d+0eNM7SLUUVcNKdeTo6dp8HSnJ0aneY3TVRPCmbLrhaya8L5QtYT6R45LPaf0RT1rqDo2tqRhZrI0LWL9hbGR4N05+wyYCxEFAvV4v8AtBKLkByr1QQ8hy1wdH1BCyuKtaF3TYy4uEKgLZtWKWnZGA2ebVACjJsFJgIjPKBiMxfVO73oL61em7RdKbUqQXstdmn1TTXgikz8BZKkVcymSLhA85IpnlynAKXasxKNM6iVpjIp9L2usdH0/wAWsUqq1tPd9ja3UB1WLmATRbcl1cjTIpjm/jOxFk2dJdJ6bp3WVWroKKlVLNAuM1itp4LVVjhapDpL3KREKi0XO6ANmPFNPibyQjljg6OqRV9hirWil4Uo9jhCoq+DMbSn2fh4XhTHlw4cdvmzz+hOzDTdLWa9N0+lp62FBsCnWTWFhRvsRwkA5zETtEly2jyjywCI+5j1BXV0vpBNelU2W2hCGNAJZZtajcbCA5THJxHJxCx9ZSJbD6Zybesbrl1LTK4c7C6zzQG2/NwqMlDt8/I4GNsjTr3u3UrIVK9StRo1h1qrrN6K9VamWH0z9oWQSoQiHOeCgc89z9n8YI8zEhmTANeGi9MaUrpzpPVaM13dT39T0NsaiEgWp3b1u2ktbRbfG9hqV1zvLsJcRKSCtpEPDHaYOzzsboaj1d1XqF5C7nsV7SF0lPGGor2R0TTnNtrScSv2rzrgLyEjSKvQQeIzlPWh9jGkVrjNQr6VpyLzZKWXE0q6rRyzfxJJ4Lhsyzf1zy9fz8syPT9CQk3MUlSmWWQ6wa1gB2GwsFQ1xDES1kKWtUGckXBYDvsIxgGEd42gtnT+ti5IPXGlX2SlgQwTJVZjQ3AomJmGAJR5T6oGY88qh1T2RaZ/0R6Y0/T116ZatqPSK7z9PhaLDTkVPZZNyIgytcFMYDjnnz9XL58vk5MFEiUQQlEwQzETBRMbTExPlMTHvjMQ6b7GdIpgKquladWWNqLoLRSrqAbgjIDaEQXEDYEJkBdHrEPTEjHlgFcOl+lK2gdRdR19DqqqgHSen3F0ExMLs6gt+sCt0K33Y0lpUphxuRz5lJSRTmD90vsrK4fTWskGj02iDr79RTqJahr3UVq1SaFpdsyq1fBQLHG91U2XCrmhahFMLI8u5c6DosuJ1BlOsd+us0ouEhRWkqZvzWp8jLVrLke4icR6z+uW/ldOdjGj07Tb1TStPq3HcvFtV6ddNhnOdz5OWsWT4k+Z+r1z5zynAP32t9XewaZdtx8pFdphH1mcJhQxH0kyRGPy5z2SdI+waZSpz8pFZQHP1m8IlpT+M2SRT+XPQ6z6OTfT7O/lKvFQ2RGduZV3A8BL6Qk1jyH76PLPdHPnDPjxf/fgZrrRVnVKPbOo5z1YKKVP0rGpj5VhvlNu9p0pSrakfUN6rpeu6aipV0zVdNuQpt3TAOxLF3dLFnMIcyLYE6tMKc4FplTdyERkJnVNar1lq9i3YTWXX6U0kpNzBWPgDqetMc3cpjcFTwEp+9khj77JT1vsT0a1cXqFnStOffVISu66lXZaGV7eHMPNcs3VtHhzy9H3vHMC7wnTT7DkFW6W03W7KlyVS/qDaILoWORcJOHqba8MJ4On2YSkp8o4EInn0YRVrpnp1OsdOdBV2eJCdT6s1O62AI1m2qwupbjkkQSDIXYSzwWwMjuoyjPZu927Qyu9oAFpteaWmUaxUaIhxp0rT9D9pt2qdUdk17bvDqbvSAtjwh2keRcrY9ivYkjS9K0eg8U27GlJjhaNQEQW2LMbVisRjzTLpc8dw4n4TCCZ2IonOq/TVYDsMCugTtyM2zFSxO1IKFATYKB3dIJAEj4slxWIhHkMRgFMu0fRF6vovZtQu2CYFy5pTrjPGICsRX6cuusLNwFB/wC1ciWzY4I4aUb7lng9cQvSj67PpNaqlOn05SB8acMBWRrUHel7q4J+LC1V0s0scSY5CYqlnqHLiP7CNEKkOnFo+mFp4GTApTRrTVBhTJEwESrwwZMzM8xGC3n35kPTHRVOjXipSqVqlUeXGvWQpCI5fK2UsRD1fP6fP58Aqj/0C0TTNX6MjpwagWrLLA2nUvD56hosaXZZYtagat5tRNuKbF2LJGXtB+k9yLJS7qjYKepS3jkXVesco3848L2ZA7x749CgmP8AhIckXonsd0nTWNbp2l6fQY/ycynTr1jbG++xklYSQ7+rjM7cvPbfPT0boSjXsWbVepVRauSBW7CUKW+0S4mAmw0Bg2yETPHnJbci+tgFdu870Bpd3qbpANSp0rKj+zkM9sQli2AjT4NSWS0ZgwFrSeCy9MGHOI3Hlnh0+jdD1DqHqdevK099XSqeko0ureFM1aOks04H2LdMG7KVDrRMUdtIiavZVrhowIxlnuuOzfT9TWKdSo1L6QOGAu5XTZAGR7jEXCcCW3lvH3u8e6c6HWPYvo+oGll/StOunXiBQdunXsEkY84BZNWcgG/q4D6d/PbfAMH7lt2wzpfRjsk0zKsXhG+Slp04e2KBskvVJHRisXIvVO+8+eV0667HdNvv7TNUv1l2/ZAldQXRJrpuq9MU3OtVgmeCrZl4O9kIF0QhcQYxyEr6rCIiIiIiIiIiI8oiI90RGeMXRdOQtqmpVld+WTeX7OrhcJihQybYcdrEsQAJOXQfNQiE+kRHAKbdAdl1PS9T7PrKQhd/UKepFq14zKbWpmzRIst9uecyyyU3JB4Q0i8Lw9h4wPHMQ6x6If1FqXVirVfRhanUY0xOratqB+1aDp60VirN0vTPZfimulh3V3Bv1hsPZsUlCeBXw6g7OtPtjXXao1LAVGLbVB9dLRrNVGymIEwmFGuPISDjIx7s8/qLsZ0e5aVet6Xp9m4nj4Vt9Ou2wvhO4cXMXLI8OfUHq9E+ccZwCvHUemaVf6l1dXUrKz6WgaXpjaNTUyXNMhsrssv6sys34my3koK3jSshTAEEQMs9UJdF9J1dW6Y6DoKkkV7vVmpuNdcyQwKcT1LYfUiVSBpFlaZrFAcJgCKI45fzqvso0u+5Fi9p1G4+tO9Z1qoh7UTvy+KY0DJfq9fpmPVxL3iM5xpPZRpaGS5Gm0Etm0y74q6iAZFxypS61BiuCiw1RGo3RPMwMokigiiQIO7tvR1PTOpOrdP09KqdIA6faqknZaAe2nbmw5SY8hlwgmGEEeqVbz5xnZ73Mrs3emNIus8LSNU1OzGpbslK7UU6LrNTTnMghjwrdkR5KmfjvC4fPxKdp6Eo+2fZH2Or7fCfZ/bfAV7XCN+Xg+0cfF8Lfz4c+P4s56z6Fpaigqt+pWu1ymCJFpC3qkh+SXBokPIfmLbePmwCqvdldo6Oo+t/sKmkirUraGgV6etK0E5FfU2WSWCIgCmGn4LDgf6VRRMlIlmK9JJCj0h0FrgEO2iN0s7bImJhen6wr7H6hB/R4ftyXnv8nwN5+TyG4mgdk2lVGqfV02hWcmv7GpqKiFMVU58/ZlmtYkCOfr8IZ4cvPbfzzih2SaUqm7T1abRVQsyyX011ELqul23iy1ALhRye0byQ+ew/VHAKXdoy/b+lerupG7//AMQOr1qMl5eHodW8nT6E7T8iLMnZ1A/PjI2hn73JP7UKmnap1eNLXDqs0rTdAXqdSndYHsNm2+7ZRZuuWwoRZ9iQgFQLhMU+Ow9h575Za10ZUOp7AdWudGUxX9jNK5q+AIwAp8CRlXhCMQMBx4wMDG2Y/r3YXolpVVFnSNMeijEDTS6jWYuqMbRAV1kqRUGwj6AiBniPl6YwChmidWrDoq0WkipWn6n1tZrtWqx9jUo0e5rErFBWVrL7H1311ppy7weKkvL05Zfu29l69Js6xqDR0XR0NrUQZpOk2BZSoqpjZP267YNNQZtWFtmCbFZAeCgZk3zyMZrR2U6WMXBHTaMDqMwWoDFREDdmIkYm2Ph7WPKZ/puXyi+sWdfp/sY0ipUfQq6XQr0rMGNmqmohVewLB4HD1AEA3kHonnBbj5e7AMurWRMRMCgxOIISEoISEo3EhKPKYmPOJj35986tKiCgBawFa1iK1rAYEAAIgQABHYREYiIgYjaI8ozs4BzjOMYBzjOMYBzjOMYBzjOMYBzjOMYBzjOMYBzjOMYBzjOMYBzjOMYBzjGMA/Oa6O/P93p/Mq/7b82L5ro78/3en8yr/tvyKvLuHrI2j1OO/EfNT/SV9xjGVE9ZDGMYBYPuMfd6PzKx+2jNi0Zrp7jH3ej8ysftozYtGW+7e4eszyb1R+/D81D4nMZznEZzkoauGMYwBjGMAYxjAPxnOcZ0Na1pVZRuewFKWMkxrCgAAY95GZTEDEfTM4OYxcngs7eZJb56E5xnkdMdUV7iF2arRehsTIMCdxOImYmYn8UxMZ7GcJp51oOZwlCTjJNSTwlF5mmtKa3mjnOcYzk+RjGMAZxtnOMAYxjAGMYwBjGMAYxjAGMYwBjGMAYxjAGMYwBnGc4wD875xOIyM+8d1hYoaNdt1T8N6hVAHxEuPiPWoi4nEjMwJztvExv82fEpKKcnoSxMmy2aVprQoQaUqk4wjjoypyUVjpzYvOSZtnOVF6T6e61uVa9tes1YXYStwCalwcCwIOIKBozHKILz2mY3+fPX/m364/DVP9WH+gzoVdtYqEv+PSWOdw0qcnGVsoKSbi1lVdK0/wCWWixlXv5uOuPw1T/Vj/oMfzcdcfhqn+rH/QZztz4Evd0nzuLR8No8tX9otDjKvfzcdcfhqn+rH/QY/m464/DVP9WP+gxtz4Evd0jcWj4bR5av7RaHGVe/m464/DVP9WP+gx/Nx1x+Gqf6sf8AQY258CXu6RuLR8No8tX9otDjKvfzcdcfhqn+rH/QY/m464/DVP8AVj/oMbc+BL3dI3Fo+G0eWr+0WhxlXv5uOuPw1T/Vj/oMfzcdcfhqn+rH/QY258CXu6RuLR8No8tX9otDjKvfzcdcfhqn+rH/AEGP5uOuPw1T/Vj/AKDG3PgS93SNxaPhtHlq/tFocZV7+bjrj8NU/wBWP+gx/Nx1x+Gqf6sf9BjbnwJe7pG4tHw2jy1f2i0OMq9/Nx1x+Gqf6sf9Bj+bjrj8NU/1Y/6DG3PgS93SNxaPhtHlq/tFocZV7+bjrj8NU/1Y/wCgx/Nx1x+Gqf6sf9BjbnwJe7pG4tHw2jy1f2i0OMq9/Nx1x+Gqf6sf9Bj+bjrj8NU/1Y/6DG3PgS93SNxaPhtHlq/tFocZV7+bjrj8NU/1Y/6DH83HXH4ap/qx/wBBjbnwJe7pG4tHw2jy1f2i0OMq9/Nx1x+Gqf6sf9Bj+bjrj8NU/wBWP+gxtz4Evd0jcWj4bR5av7RaHGVe/m464/DVP9WP+gx/Nx1x+Gqf6sf9BjbnwJe7pG4tHw2jy1f2i0OMq9/Nx1x+Gqf6sf8AQY/m464/DVP9WP8AoMbc+BL3dI3Fo+G0eWr+0WhxlXv5uOuPw1T/AFY/6DH83HXH4ap/qx/0GNufAl7ukbi0fDaPLV/aLQ4yr383HXH4ap/qx/0GP5uOuPw1T/Vj/oMbc+BL3dI3Fo+G0eWr+0WhxlXv5uOuPw1T/Vj/AKDH83HXH4ap/qx/0GNufAl7ukbi0fDaPLV/aLQ4yr383HXH4ap/qx/0GP5uOuPw1T/Vj/oMbc+BL3dI3Fo+G0eWr+0WhxlXv5uOuPw1T/Vj/oMfzcdcfhqn+rH/AEGNufAl7ukbi0fDaPLV/aLQ4yr383HXH4ap/qx/0GcF2ddcR5/Zqn5f/lj/AKDG3PgS93SNxKPhtHlq/tFos5ys3dP7b7t8Hpvt8dy3kAt4LCeECPpmFisZ2Lfadt/PLMxGdtOopxUloZC3hYalgtE7NVacoPBtY4PfzYpP3ITmujvz/d6fzKv+2/Ni85ro78/3en8yr/tvyOvLuHrI2D1OO/EfNT/SV9xjGVE9ZDGMYBYPuMfd6PzKx+2jNi0Zrp7jH3ej8ysftozYtGW+7e4eszyb1R+/D81D4nMZznEZzkoauGMYwBjGMAYxjAPzOY71/wBMhcpWap+YPSxRR9ImEjMf2TmQzGJHOGk1g9B2U6kqc1OPbRllJ6ms6ZT/ALgfVZpDUtCsT8dp1kyXE+W6zMhZAx9UXCR7/wD5w5cGMo92mj9gOtKOox6KuqR7O/5h5FxUUlPuiBL2Zs/TwLLvie/nkZYG1GVJ6acsj1dMXyPD0F32XU41bRSvGmsIWyiq7w0Ksv5doh6KsXL1kfTGMZKFEGMYwBjGMAYxjAGMYwBjGMAYxjAGMZ4+vdVVqsDNl6kQUzA+KwQ5TETMwMFMSWwxJTt7oGZ92AexjOtRvA0BYoxYs43AwKCAon5xIZmJj8mdnAGMYwBjGMAYxjAPzOQz3wP+ruof+G/92jJmnIZ74H/V3UP/AA3/ALtGdFfucvwv8ibuTvjZv9TT/wC2JlXYJ9xdK/MKn/oBme5gXYJ9xdK/MKv/AKAZnudkO1XkRhW//E1fOy/qZzjIx7yXa4eg6JqGrAkbB01rMEEcrFpMepIjJwJSPm35onMU7zfaferM0bStMsopXtbvlWm65YPinUr1XW7T1oYULY6RTC1Q34vci38+OfZgk84zwOkNMsV6iVXLft1ha9nXCSqtLyiZnxJSnZSvL3wGw+nfyz2JsjtBch4ztsW8bTy+TtPu8942+nAPvjPib4iYGZiJLfjEzETO0bztHz7R78/E3Q5+HzHxJHlAbxzkYnaS4+/jv5cttsA7OMZC3dg7UX6lps2bthZudqmtJrRMKVJVqeqWqqAAAgPE8JSRGT2I595SU+rAJpxn4IoiN58oj+yIzp09bSwZNblMAZmCMGAQxMe+JIZmImPn3wDv4z4tsDA8pKIHbeSmYiIj6d58s/Fm4AbSZiHIoEeRRHIi8hGN/eU/NEec4B2cYyv/AHku9A3Q3Uq1fSrV07Nmgl1koJGn1V3rkU18rJDMPtGzfhUTBGICTDlY8fEAsBjMJ7YO0f7E6e+6NWxeaErXXp1QInWbL2CmukZgShcMaYCTjjgoORzy47FEPT3eA1ypqul6d1DpVGovW5sLo2dOvNtwi1XTNj2S6LayfWxYnxckjCTHbbbkQgWUxjOkWrKhkJli4bMSUKkx8SRj3lAb8pj8e2Ad3GfCLQ7SUEPEd9y5RtHH5W8+6Nvn+jHtI+n1R6vk+cery39P0+Xn5fNgH3xnUpaitsTK2AyIKRmQISiCjykZkZnaY+eM/L9WUJiomrFhxMgsjGDOI98iEzuW34owDu4zpajq6kxEtatUFMDEsMQiSn3RElMbz+LIo7wvaLbot6cXTZC/sl1HSoWfQtniUjq3rDwjmJceXs4fGBxMfmId8AmTGfCLI8pHkPKI3kd43iJ+eY9+2fmLoScr5jziIKQ5RJwMztBSO+8RM+6dsA7OM6TdXUJiomLFpxMguTGGFEe+RCZ5FEfijO7gDGdG5rClkAMasDZOyxMxEjn6AEpiSn8mfdloY8pIYnjJTEzETAx7y8/mj5592AffGdendBgwazFgFG4kBQQlH0wQ7xP9WQx3wu1h2k6BqFmjZWnUVDV9mgoSwxl96tW5whsFBxs0o9QEOATfjGVs6l661bU+prGj6ZqidLqaRTo2rjIqV7ti9ZuufI1IixPBKV16x8zUPjc2e+IEeIFk8Z1C1JcMhUsCGzElC+QwcjHvKA35TEfTtn2l0RMDMxymN4jeN5iPfMR79owD64z4w+JmY3jcduUbxuO8bxvHzeXn558R1VXIQ8RfMxkwDmPIgj3mI77yMfWjywDuZ+He6fyT/hn7z8O90/kn/DBytJR/uX/7zZ/OD/wjLw5R7uX/AO82fzg/8Iy8OYll7ki2bK++lbyr+iIzXR35/u9P5lX/AG35sXzXR35/u9P5lX/bfmNeXcPWRZOpx34j5qf6SvuMYyoHrIYxjALB9xj7vR+ZWP20ZsWjNdPcY+70fmVj9tGbFoy33b3D1meTeqP34fmofE5jOc4jOclDVwyDe0Pr24q3IS+ylUWUVgTRr1mPgLAbLt2CteNJqY7mCorJGOa+ByU8hybHM2iZ9+0TMR7t9o928+WQt2SazpLlK1Cw2ieqNHxLLWymbFdszMHXUbPjRRWLdASE8J4cveRYBmWk9oMoNdXUtkWDPwlP4kFS4XnxlTJkwU1kRyisxni/KgfEgCIc9yLuvOoQ1GrYp0FDdNoQEO5B7Gg+USDWu33nwSgWwKQYfIB24/KH2ul+pLKiXU1AAF0+lNlRTNe1xHf3F8Yl+0SRJPkPzixnuEDN8YxgDGMYBWrv29nHtuiseEbupFFkZiPPiETDY39/9FJz+URyQe7V2kfZXRqVoi5NlULf9PjJ+LZMx83Ih5R+KYyQde0sXpYoxghYBDMTG8TBRtMTGU87lGqlpmq6x086Zjg6bNXlPvGOIntv85KKue0fQc5E1P5VpjP7NSOQ/wAUc8eVYo2BZP8A+hcVazvPVsdVWmnr2irhTrxXFGW1zfpLrYzjOcljX4xkb9rHWNhHBVaHciRasmSFpa8wrCHxFUXz4XtDDaExLgIOAlEQREA50OkJ1G1WXYragS1s57r1KitlpLAbIEsirurDwHw5DgYE31FMu+SIgSvjIu0ftFtqe+jYrOvPryqfHpJWtRA5cmHiw54rUzdbPRDS2Hw9+MsVLsn0XtHqPZKPE8GzG8zVsbJsxA+8oUU7kO0iXMOQ8TCd/UO/GIMqxjGcgYxmK9V9fKqGCvDsWbLBJi61VUtaQBMQRlMyCUhvMDBvaoSLyiSnfAMqxnidM9VptgRKk4lZytymrNTksgRLw2qZEGE8SE48uJgQmMkJCRe3gHGcZzkd9s/ayjS6rDJojZNZezhxJkwUzAQ5gDEyNdJGJNYfEBj3kOfEpKKxbwRyljmR6/W3VLkkivWUDbVqWQrxTkEgKhgmMYQxJTxid4AI5n6tvklOYT1p2T3SpNlFxh6m1y3OsrgEGxSyEip1ecnFavPAYBRmcF7mmzxGGWQF2SVXSu1DmncHixOowyDaPpmNkwUElaWCcwaVgINGfVyn1Z6EM1VI7cKtzbbZnilXacb/ADp8GUxO3zw4fp4/e59nB43Ys4BG4ia5UnRaN7KJCMQgHeQEowmVNW2VmzmkiATI1x/R5JuQ5c1S1V1NV/UUAFZyF6eo6rJcNRjX8t7hkCTYNlngKWYKIUmPH/tiMpjwBjGMAYxjAGMYwD8zkM98D/q7qH/hv/doyZpyGe+B/wBXdQ/8N/7tGdFfucvwv8ibuPvjZv8AU0/+2JlXYJ9xdK/MKv8A6AZnuYF2CfcXSvzCr/6AZnudkO1XkX5GFb/8TV87L+plc/5QL1dLXE/PYu6LXiPp8XWtPgo/rHlmKd6Tsh0zUOq+jYuUKtr2lmsrsy9ANl9appVhyEt5RPNSrLfGEC8hOd488sl132eU9TSNe8nx0hYr2hDxGqiH1HA+uckk1lPhtWB8JmQLjsQlHlkGaFrRdQdTabqFareVpmhUdTj2u7StUItahqc1q8IrpuqS5o1kV3y1wr4CbBDkUln2YJY+3QBiyUYwSzCVkEx6SAh4kMx9ExO2aw+qJval07T6PpvYN7QD6gdeMPM4V0qxoaMqd/Ljdsu02Rn6qiOPkjy2jZgXS3YjpdLUdR1WtVFd7VvCi87kwvG8EeIbLM5WrePNnhAHilsRcpjfAK59Cdosa/rD+o0h41Tp7ppUUVx6gLVtZpr1O5wmP+0TRinUMd9xl5xPn8mJu792K39aq6Bqf2JTVuNvUtd1Dq23qFazqN2BZ47KtJNaWtUlwTFOK1k0JrpHYq7DHbLzdjvYnpmgVJoaVWirVlzbErhjGSTW7cyk2mw59IgERJekAGI8hzF+lO6ToNG2NyrUakluOyquN6/NBFhklJuRp02ZoqZMlO3BAwE+YiM4BMmap6/YHQX2ds6jMCPWm2BvUL8sZLdPl2vxFVVKeWyFTLicwQiObrLinlPh8dqpjvG30/j2/wDOMj5vYHpM6N/0fmpE6RCIrRUlry2SBQYRDibNjkJxBizxucFETy3jAIk7fNHDWeptH6dukX2J+xt/WLdSGGtepurWKtatVfIGMtSiXHbJHyDkBkoKB9OFdhnZXo79b7QtJoVqtbT2VdG0pqai1rSJs0+/FviC4gIZBWZA/n8VRb+Ylk9dXd1/Rb9ajVtV3tjTefsVj2++F+vLI4tkdQCyN0vGj+l5vKGcR3guIcfr2f8Adj0TSrcXdOpeyPiuNUvBsWhU5YyUidhEulNmzEsZ/tTwZYLxDmWFJYBVDozqpvUOndJdKO9TksafUy9+UjT6VtexwixE/NqWoJqxv9UWfJzr9WdO3Ootb6qFnTyNbOpY+wunN1HUKyNO0ZU00nNgahS2341lrvaytV6xNMVrWpqpWXG5fRHYRpWm39R1OnUFN3VTFl50Gw5aUSRTxEyIUwbDNjBTAQwy5FykR4+F1/3VtD1O4d+zWbFpywTZZVvX6PtilRstdwKVlAWhCPTHjCZcIgN+PpwDLuyTpBun6Vp1B9ibbqdGrWbZKJiXsQkFk3zmZ2OR3jlJFt75Kd5yIe+x6kdOJ+Z/WPTi5j6RG5Li/wDJU5YWlSBYAtYwALEQAI8hEBiBEYj6IiNozwus+zynqE1JuJ8aaF1Oo1PjGr8K5XFgpd8UYeJwhp/Ft5rLfeQKRHiB9uuOuammVH3r9hdWpXCWOc2eICMeUR9JGc8QAAgjMyEBgpIYyv3ZF03e6h1ZHVOpoZSoUlvX01pbo42BCyHhu1e+H3li0n0Irz/QpLf5Rc2S/wBs3YPpXUFdVTV6xWq6XjZWuLNqtxeAMAWc6j0MniLD2EjIfPfbcRkcf6A7puh6XbVdpV7YWUwyFk3V9YtLiGrJR7ot33oPdZzEc1lxnYo4yIkIGVdt/WDtP0XV79cYJ9LTL9tIzHKJbXqtcuJH545gO8fPGQ93We7Xoi9O0jVyqou6tZrVtTdrNiPHvPuW68Nc6LJzLICZacCsZgBDjGxTHLLJWK4mJCQwQlEiQlETBRMbSJRPlMTHlMTkRdAd0vQtLtKt0qr1HXNx1UzqGoNp1CsAxbiq0W2mVEywGsD0JjgJlA8IwCs9XqtVTs46rtMOAi1a6sSMTMDMNvancpKXET7ikmBsPv8AVmT94/s5XfPs+0gyYsG2yBspaaWFUq6I4rdeGrkGAuyiCQ3gQzIGUb5Metdyzpqy645+neL7cyy6wk7d2ak2LazXZtKp+0+ypttAy/2lKQcBesDAvVkZ9rndxqM1bovSRrXW6TTDqBrGe1agbEMGrW9lI9Sh02kt8ZskifaQmPD4L9K+AgdLp7punoPV2qK0KoqvVR0eVzUKNQeFWdRXd302WKD0habVGzH3pmr1z8rkXqdz/sA0i5pGldQ3qyNS1rUIRq9jVbIw+0N0jhwClpTPs4UygK60p8MAhO0jvyyfOyvsU0zRVuXp1bwpssh1lzGus2rTYHjB2LVljrDpiN+MGwhDkXGB5FmJ9L90TQKVsLlWo1JLsFaTXG9f9gTZOZInJ06bXsKzmZko41+Il5jAzgFYE9IaTqnTnUvVuvpRfunOvBX9u2aOlooPtUtPoU0smV1mSagZuAi1rrAzJFJDnW7aH6nX6d7OVaKpb9UTUVZpqZEkLG0ulbLCkQiY8RvCTJQTPE28BnyIstJqXc36bdcfdbposbZcdmwkn2poutMHidpmneP7CVmYnfxpr8+fxm/P157vR3dw0ehGmRXrt/8Ag5WT02W3Ltias20TVcIy+wzmv2afBBbeYJD5EBPngEO9lTKGm9Ial1Ho7GajftaVd1WzqVyIO/dv1qrj8O3Hn4UVXLmvFJc+FXgCAYKeRsivu793+5cnprUQ0hWmMruTrGodR2NQr3tW12bFVkuSPssumat8ncyG1YGEpgYBfIcuF0d2E6XQtX7dStKmakRnbXD7BVWMbMS5g0jaVRTLEiMuNSQJsx6pLzzwOz7uoaHpVpdujVco0S0qqiv33VKkvEwdNSk6yyrXlgsYHxSR4iZCPGC44BAnWPZrW0jqVl7W9Jqatp+u6xRmhrhiLNQ0TUChKKVFos9a6EvUPgPqmMLI5h0FBL43C6x1yatO1ZEeZV6z3wH15UomQPl5+qR45GqO6ZoQ3gv+zWDcq2V9Sm6hqDaSrsmTPa1UG2jprdDDIxIExwOeQwM+rJimN8A1kdrHZTpE9npdQaiCL+va5X0+xOqWtnWou6lYRMV6hsmfZ10ksNYoR4Ygqse8eksnfvAdkqNa610KjZ5zTToWqWb1cWGsLlYblBaqr+EjLK82pS0lb8T8LaeUSUZIY9xHpTZ4TpQkp4vH2c7V061f2id3FRrFZlNBhzP9JTBBh7gII8skbpfsZ0+nYr20qZNqrp5aWmw61asN9iN67JqMnuZ4pE5QHLmQTvTtz4+nAKx9kdsen6naLOlqhdTR7duzp9ONyQh6tCr22gsJn0qOx5ysfKI90ZE/at2I6JU6S0O65SLeu67qHTrD1ixs+/at3rVa5bNdg5JkK8DxggAkQhPGJ5T6pvbpvYbpidQvamuvMWtSVCr0ePYKtYGAWuSZSJs0/FlSlrl0I8SQEo5fGM5RujuDdKQDVfY0yAx4LFl7UGRTHxgsbadztT9j58ZYHyp+DPp4b8dwwCxGU17Nuy7TkdZdZ30abUm1QraPZpkKAhgXLtLU3XWLKI3Ft2TCHHEiTN/Ocs9rmt1dH0/xWRZ9lpJSuIWq5qFnwxlaF+hQ2blgo3Hmcw09uTDL5ZZF3dm0iw+31BrtirYpDrV+v7HWtKJFqNP02kqkhz0Hs2udlo2HQlsCYgS5kR5bYBWG72X6WXZ6fVDYWzqB1GNZjXd99SjWDbBpWq1/SrBdnhRGqEiqAHw+G+WA1awbetOmpcPhuDpnV3sH3fGtfpYGuPp4Tznj83vzL6fc26cC0NsdPmJGzNwK02rs6cFuS5+0hpk2Z08G8vXExWiBP1xAl6syftV7BtL1oqp6ghpNpE2az69u3SsKh4iLwF9J6G+E4QAWLk+JcR8txGcAh3sA6jTZ1PtAvLIWLjVVVJKJiRmdM0arWaO8eXkwDGc8/wDk9+wGhV0HRtWYkbGrWtPSyb7o8R6azFca9SuRb+z1lVfDX4auImXIy5EZTkudEd1rQtNbadQpTV9sqjUsJTZthVNUKWnlFWH+zjYJSgErQriwXqmWbsbJyD0j0nXoVK1GovwqtRCq1ZXIz8NCAhag5sI2HxAYjmZkZe+SKd5wD2s/DvdP5J/wz95+He6fyT/hg5Wko/3L/wDebP5wf+EZeHKPdy//AHmz+cH/AIRl4cxLL3JFs2V99K3lX9ERmujvz/d6fzKv+2/Ni+a6O/P93p/Mq/7b8xry7h6yLJ1OO/EfNT/SV9xjGVA9ZDGMYBYPuMfd6PzKx+2jNi0Zrp7jH3ej8ysftozYtGW+7e4eszyb1R+/D81D4nMYxGc5KGriKu3HqCqEafVutFdW5cldmDLiBIVXc7i6f/wxvCulu/oLxREvSRQWVutaYARyKiC64QY7zXEEBA+ko32FQQPuL0xx/FkSdrt3lrIIOJkR0yGJghmAkjtMCxxKfSwuIV+UR6kjx38rHqwS/wBJ6Wr1NrUF8Jgt2KrjwkpnaY5R6d53+Tx3nl/xZQby2U/wNqlZ3RcsnDJaeGVik9GD1lhst07fRVXLSxx3tT8pNWs95nRlTIqtxeZEeS9NU7UZifOIgipLctXu/wC0Mci7q/qm/q5Klq/sZWrsizVhVgzuzZCJhLn8VrUsFwZTNbk+DnyPy5DmJM7Y9MXIilvtBnPGApqJ5SURM8ChQzwngJs9fH0CU+7jy8q92sXGf7pQGAnwJW62+AAxfBmufCXEuHdY+fPiQEQ7wXqyMqW+/L0WRY7NKnF/bz486WSl6M511K9z3c8bVaItr7OUv6Viy1nZD16V+syWxtYq2W1LGwzAyxfEwYG/3rUMS3y3gSMg33EszvfIz7vWjyGmIsmUE7URDUHyMEIQVhKuAABTMgKkipe2+5EJHPmRZJm2bGsyqKjBVu6ZCy8OHhn95DVHBzbp9ri8n8O8frGMZlnWfnfKRd6yvOi9RaTr644qJkItTEeXHzEt/pkkGzb/AIlDl3ZyFO9x2bfZPRbSxHk5Q+OnaNy8RXriI/5oiQ/IWYFtpOdF5PbR7OPljnXQW3YrboWW8YKr3GsnZ6+raq62uWPkxyvKkTHUsQYiQzEwQxMTE7xtMb7752MgTuV9pX2R0KtBFydU3pt3nefidoVM/PMkiVlM/Tvk9xOZNGoqtOM1okkyEvOwzsFrq2Wp21OpKD48l4J+RrOuJkcdvqVlpxeMuCV49WHMkCL2ZBWFhZsxITDVyqvLJ8VfqV8ufSJ53v8Ap3VWIVdPhdhorgUV6kjKVBA7B4jF7prqGNvlT5Dx4iUmsD9LtNsuDTr514mXjUsSqBHmXiQopGRXMTDCifOF7eufT99nj6Z1DpWladXkW1q9MEKhMgQQLBlUSHhQMz4kksefp5eiOW+wyQ9jaisWRyWOg9fpvRoppYx7BNpyT7djjxgigfm33nw1BEAA7+Qj5QPyYrg+4rWLVjU2JEkOWutTFwiRTUrmwxf7o2iw5hsX5n6PDOGFDBEfT676jsa2YiwTraQMwQ1DggfqBDPpO8M7Sur98NEo3P0m/wA/9nTh3XnXhxM0qMjNso4k2d5XU5iyAI5iCHxJIdlgfyz4x/8AMJesr6vOredWN23d2U3JZdRaFg9CepPO5aMxY6FOldtGVutrUKcY6Hx8Wt6EtLJr7AupHePe09jWWFVQquQxheIxIPFgTVY3aCORlPjBLja6ReW58YWIzVGUd7HNaHRLcWIJjE2z46i1sxLTgjkpe2BiI8SiZkREEedQymYZCxNF31siYiYmJifONvOJifdMTmyaNhrWKjCjXllzUFlT1v8AvNx6SlWO+LPemXXs6yY5bWQ9K1cqz+7eOWMiImZ8oiJmZ+iI985Beu9EWOo0G4pRT0+9VFMKak7Vi3UlkWK1hkhYrhUYE7tSuJs+lvx0FPxC856st2LVv7HVrHsoAgLFx64ArMLcbFpTWhkGtcslLZY4wOQERgB5M8RLQuzmxSWpFK+Y1khC1ouJG4K1jHEAW2GV7OwRtEeM507eW+dxInX6n6bfSiL1EvFYiqCbVd5T/t9etBEufG/7K6vk3w3EJAzxSBsbeG1GcaNqoPSp695W5a2hMxtPBgwY7x807THlmJar2ePtgabt9jK7I4MRVUNMWrn5azbButQLI9JeDYUXHy3z59NcqFlWnE4nV3JaylLi5PTCJXB1SZPqeELYJqM+TREGQZs+LLAM+jK0dRvl2ramTYnxEkmssCj3VISDgIN5ncHNazkQiO5hwnl4YllluOVP72vSibGpUYMDE5ptiGLYxUlJXaQQUysgmZRG4efL0Wi2yIvS6al60f4WnPIbknlb3Y58HxfFIO9qd1Rdrqxc4wWeK052lmx8o0nTrtEuWmXmIH3eyXPHvUBifP4pBWUsR+KEuWERyjh9XMtO7dtWXG1jTKljb3sqXSSTPpkK1lMgG/0HdL/myAKk3kjE1b5lvIkK7w+0hAMs+ChUSMpZEDEHBTzIz9PnuPLPRDtM1FMbtppsgENkjru4PZCbEIkxSwRVEsmYkVeMWw8tz+9yqSubZNdyyabVaC7XOp5vWyZcWGL4hZ9l2x2355ydKbeGEk4Z/KsY8ePKS31x2rahqFR9QNOCpD1sBjbFlbZFUjtxWCIL/aC90HJeEr+kg3SPhZPPSPUQ26yLIRMC5QM2nykZKPUBR9YJ3GfxxlSdH7T22GzWRpmoMuxDZivAKkOKCWBmVrxfZ4EScmJ2Mi9Y7QXq42j7LulTo6fUqMmCNCRApj5MFO5SIz75EJnhBT5zA7zkncdovKrUqK3wyEsMiOTkZ8+OnO97Po1Era/4J04Tsk1NSxzp5S5Vm1mXYzjOct5FDGMYAxjGAfmchnvgf9XdQ/8ADf8Au0ZM05DPfA/6u6h/4b/3aM6K/c5fhf5E3cffGzf6mn/2xMq7BPuLpX5hV/8AQDM9zAuwT7i6V+YVf/QDM9zsh2q8i/Iwrf8A4mr52X9TOcZX3vv9uv2B0C05NxFPULHhVtPJxLgvEfZQhz1LZ5Mmohx2p8pEYXuXlno9l3VGjaRp4yfUp6giyD9SXe1bVVWyZXTCEWGV3FIDFRTeEyAbgpryiOPMRj7MEnHGRlT7TguXNJLT9S0xlG7Wu2CVMky5dWrwRS/TyFoj4KGkUWJNTPlriOM+eel1V256NRtKo3dV0+rcft4VaxbQp5QW8BPhmyCiGTHEJKBgy9I8p8sAzvGYd1h2vaXp8tG9qNKoSa422jYsKUQVjbKAdImUT4ZuiUiW3rZ6I3nyz0+jet6eo1126FlFyq2JldiuwGqLjMiUQYTMchKJEh94lExO04B72Mqd3qO8/p3gp0zS9crRqzda0aoSKV0JtAB6rWXaVPgs5RPh81uVvygCKCHblk49oXb5omktUjU9VoUHPjkpVq0pJkG8j4nEyiRXyiR8Q+IbiUcvTOASBjPkpsFEEMxIzETExO8TE+cTEx5TExni1euqTFWXhbrkmkx6rbRaErrNq7+0ree+yjr7T4onxkPn2wD38ZjdvtDoLrIuHcrBUtTXitZJy4TYm3xirCWb8GzY5h4UBJc+Ubcs8jtG7ctG0fw41TVKNAmxusLVlSmMGJ4yS1EXiGMT5SYjIj884BneMxMO1PTZr1LcX6c1bzAVTsRYVKLTWQZAtDeXBjChbNgCSn0F9Us63Z/2zaTq0vHTNSpXyrFAvipYU+VTMzAyULIvSciXE/kHxLYi4zgGa4yv/Zp3w9L1HW9V0aLlATp2q9WhxuLJ2omVQX2/CT5TM1XeJXKFyzzUW/GYKMzzt97X06Do+oaq4lf7JWexC3MhQ2bIqMq9WDnf12WwKh4iRbl5QXuwCRMZG3ZT276bqumxqKb1I1qQtl402lMTSbKBc5T3bwK/BiZ3lnHYR3njnodnXbdo+ry0dL1OjfJEx4w1LKnkuJmYEiECmYApieJ/IL5pnAM5xnwsWBESIpgRGJIiKYiBiI3kimfKIiPOZn3Zg/Z5286Lq7Wp0zVaF9qI5NXVsqcYBygfE4gUzK+UxHiDuG5DHL1RgGf4yrHdh7ydD2JStU1qtGoahq2t+yIuXQ9pJA61dq1VLBjOULiFClAemJ48A5cdssR1l11S05BWr9utSrjMCT7T1oVBF8kebSEeRfMG/IvmjAPfxmCdE9uOj6lWfcoanSt1qsTNlyLCzCvAhLCl8xPxUQuJPc+Ppgp90Tn16c7ZtJuW5o1NSp2bkVguTWQ9bWxVZCiW+RCZ2WcOSUSXvFq59xjuBm2MwTpzty0a5cbp9TVdPs3k8oZURbQx4yG8MjwgZJzKpiYZERuufIuOZL1P1PXpV22rbl166AljnOMVrWA+8jMpiIj8s4B62MphrnfLTq/Qmq6rStorasvR3PdWpXIbZ01rSNKJIg4tUzfYhIgXPL3fJyxXZ/2y6TbcWm19Vp29QqKGLVZVpTbAEuBBpMASkpkGelvv4GWxcZ8sAkXGYV2gds+kaTKR1PU6NAnzskbdpKCbtMRJALCGZEZmOZ7cA38yHO31B2oabUhJWr9OsL1OsIN9lKgaiuAte5ZmYgSlLYBmcTxECGZnacAyrGRU/vTdNjVXeLXdKio1pIW+b1fgbggZNQ+veWLhgGYbbgBic8YIZySqF8GgDVGLVtEWLYsoNZrOIIDAxmRISGYmCidijzjAO3jGVb7Oe8dRp6h1L9mdZr1Vx1FNDT1XrgLEAr6XphNCuDTjgqHOI2EECAmzcpiSwC0mM8zWeo69ZB2rD0orKCWMsOYC0LXEb+IbTmAENvv5LjmM9Cdtmkaop79O1OldVW3mwdaypsIiIkt28SmVjIiUxJ8YKBmY3jAM5xmM2O0fTwqJvldqjSf4Eotk9Y12xaIAr+G2S4F4xMCF8Z9ckO2d3UOrKyrFaq2wldm3DpqoNgi6xFcIN8pXM8mQkCEmSMeiCHf5UYB7Ofh3un8k/wCGfvPw73T+Sf8ADBytJR/uX/7zZ/OD/wAIy8OUe7l/+82fzg/8Iy8OYll7ki2bK++lbyr+iIzXR35/u9P5lX/bfmxfNdHfn+70/mVf9t+Y15dw9ZFk6nHfiPmp/pK+4xjKgeshjGMAsH3GPu9H5lY/bRmxaM109xj7vR+ZWP20ZsWjLfdvcPWZ5N6o/fh+ah8TmM5ziM5yUNXGLdb9nVLUQEbaAbw5eGfmLF8uPLw2BIsHlxHeILiXEd4LjGUcp9mVesyU2kC2xUYlbDsSVg4haxW+RN0tKFsFyXcBnj8b7s2EzkF9rHd6ffuFZq3E1oeEjZF1Y7HMuClQSuFhHhz4aVb8ucbgPp+VmXYpUadXLqRTzdthi18Sr7IrBaLbZlTs0mpKWOTlZKa38d7Vp4yBqwwsY32iQFJMmI8+dVng2Zn3+5EgH/L7s+Os2QSBS+YWAxMSRlARsqz5xBTMRvFVsBH/ADfTk31O6IJwXterXm8iOZiuNapGzePihuKmskWcfr8h+Yt/Vki9Pdg2kVmQ4KKTfE7+O+JsO5TtuXiOlkwU8Y3kdvdGTk70ppYQTf8AxKBZthVplJSr1ElpeGM35N5e8+3YY7lo+mFy570q+5x8kihYwRD83CS3kdvLjtt5bZnc5+YjP1lZbxeJuSEcmKWpYHORp1v2uCldk6xIMKYwy5ZaTJq1xIeQhugWNc+Y4F4CRIuJr34+KvPK7UesSsANepVuW6/jL9uZWgRUVOeYWFrcTFk04iYKQrcjPj4cT/SeHmWk6Hpz6c1ELQVMxkCSvYR2LzmCEdiBm/qmZ4nB+fvzg+zrdm/XZXBmGQHMVVni1QsFL0Wl81OWt0Q5XLY4lTORBx+UWZhcrQYkM+4omJ/ryMtH0mdL1FNdJS6vqUuIocxzbdc6yRmGeO02E6rPpXIHImlrVyMsFjPDlTByng8UUh7udidD6r1PRTnjXv72KsT5RyHk0RCPo8MmhP8A3A5duIyl/fp0M6FvS9frxPiVLAA3j5cg5cwEp+rMwa5/73Le9Ma8u1XTYUUEt6gaBR7pExghn+uJjIqxfy5ToP7MsYfgnn9zxRftk6/jKNlvWOd1qO01/wDUWfCnJvjnT2uXpZ6U5UfQOi61d1hMoXFqrZcJmQiTpFjJcl0snkReMo1M57+Zct4XPIBtxM5hPW3Y1puosF1utBtEYXLQY1DTVElMIaxBrN1fciKUMklTM+YTmDfd1SvGgqcJ5ElLHHeetNf3nKlYLYrNUynHKTX94FVOse0Y3EdTT2ByiZCxc2g0VykOYKExLaHtjkMTMEKv6QvLwxd42h6CquEisJmWSUGboGHWCIiJle2cRG7gmT8Fxx8ny9UeILJU7SO79OmidjTxgqQyRMrbERIA53L3bm6sJzJlvPipD1jJeAIlgfQXSdrWGkqlEhWGYXa1Bg7rVA+RVVDO3tNtUwPFwehPukuS1iu1bHLpsN0WbGnnqPuk320nq4lqS9JprZZWve+LdtE4tUcf5cI45GTw5PXrx0aEtDfy0npmzqTvY6WxGfHx3sGZXTVHua+Inf25XmAp57s9MkQxyJ9zNB0gKNNSYMzXVriHiMmJYYqDaTORgR5ltyngIjvPkIxtGdXoDs/rabXivVEoHeTYxhSbnNKdza5heZmU/wBQx6RgRERzJCDeJifOJ8p/JOd1stMrRLUl2qLfcdzU7so5K7Kcu3lr4lxL+9RUfR6zLEhqY2HVr9iJaVmuQzMiz1CgwYLFOrrjiKwYBcBH0yMkRFk6OutfCNhv6e76JfpjYOfyyjUFBM/kWOYR2pdF29KuqqUL0hTatZKXZrjZJEG5i2LUyGJKQV8T4cM8SY5lEkXpzEFa3q8xE+3Vd5FMzHsM7RLbRVi4/wC077LGPEHf1E3lElx9Oaup3BsjUpzs9ROEpSccZJ7+qSeHkLZbNldxWaaoWpONSMYqWEZb6WGeOkl631p1E3ynUtPrx881dLZLNvxFZ1By4n8qi/JmMa3ohrgtQZZfa1CtHjpt2jGSXK5gyWlagUlCmxEg0ErDxQLYpLMJdq2rQBzN9EEMWJGRpR70WYrhvBPn+kCfEP6reMDxj5WT9lfSNvUdSKldvnYpAqy1ywQpBNhD6ylLawN54tljufhwvlCto4+rl9VNj+yOTjO0VUoRlFywklvreilj5GfNk2W3FaJ7RZk5VJqSjjGW8njnlozFyNNuQ1YMGJ2YAnG8bTsQwUbxPnE+eQl2+9l2o27da3SWl4qQSmJbYJLInkZiSN1MVMyUgRczV5qV6vTHGdRHbyzks2NSqSpNSWlEba7JTtdKVGqsYS058OPSiiGrtbRgCvVLlSBNUET0SSilaJHgDUS5UyVmeY+Y8i84886emdSVykRFyWEuFeIIsCSgUh4tncd+extYHvj1F7/Mcv5tmMdQ9mOm294tUKdjlO8+NWSzedtt55hO/lk1C9prtop+7pNe19g1CTxpVZR8qUvywIx7rnSvFLrxxEm8oUo/fPhLEIdMTPns21DZ/wCIQXM+7J1jOjo+jqrqBKFgpKxgVrWMCADHuEBjyiI+aIzuxGQ1Wo6knJ75sCxWWNkoQoQ0Qil5db9Lzn7xjGdRnDGMYAxjGAfmchnvgf8AV3UP/Df+7RkzTkM98D/q7qH/AIb/AN2jOiv3OX4X+RN3H3xs3+pp/wDbEyrsE+4ulfmFX/0AzPcwLsE+4ulfmFX/ANAMz3OyHaryL8jCt/8AiavnZf1Mrl396It0CFyIkTdX0FI7jEzEs1qhvEb+7lEbT9MZ4fbJ2dVNR606Yr2EgxFDSta1D2chiUmY2NLUjxF/JMVOkLAgUcYapZ7bjmRdrmlalreo6fpo6ZYq6Zp2r09Uu6pZbUhFsdPn2mtWooVYbZb41rwfEY9SAUCmR6pIMnUunq82BtyhM2gSVcbPhB44oMwYaBdt4kJNiwMlwXAjASmNxHPswSv3U1hY9faSspBQq6Y1Q1QUiAk1+p6anw177RLJiPkD55WXs46Pua1Q1+reudPacrUtd1BOvW7Jsbr4Eu/K01BVYFNWrIoUldIvEeCgIWAnxCIR2GdQdn1C2+rZtUqlixSOWVHvrqa6qydpk67DCTSW8DO4SPqEZ94jnj6r2HaK+6OpO0nTm6gEiQ3GUq52hINuBeOS5ZzXtHA+XINvKYwCBNe7Lql/tErnaSNkNK6SruSt0eKI2n6rcSpxwe8MYpS3cZPlMGYsj1CJZHGja2yh0t2kTpmybFfX+pCQlGwnVVC6imNUsfNULHxLAyEQIzO8ZehfTteLB2xQmLTFAg7MKCHmhZEa0m6I8QlLNhmKyPgJGUxG5Tnnab2caemxZtqo1FWrowNyyuukH2hiNoGw0Qg2x+IyLAKQdrWtdO0qPQWkaU2gQs6h6dtDKCTJTVrsA23LJh5wT3mkSNsiTTNnnMiURnHeO1INDv6h1XRs6bqFf2anR6j0eyxBPOukviDoN3mU2oXagppOHwrYEM/K8LLA1O7V06tNiuGhaSCLZCVlI6fUhb5WXNctCFcT8M/Wvf5BeccZztal2A6E60u83R9LZcV4crtHRrE8JVECqYbKuW6oEYX5/F8R48eMYBnVYo4jIxtHEdo247Rt5RxnbbaPvfmyg3a241av1B0gmSWXV2paPcrwEzyGhfrsV1I8dvmBOjWBL/jtBmwDPCtdF0ztqvnVrndQo0Jtkpc2FJZO7FLdI+IIFPvGC28y+sW4FFuwAC1C/oXS57mroq5q1vUOW8iTNPuOodNjv9Pgum4MT7xrDP1cyjsy680mp/021rVWVS1ZGtapVIbMqK2ulTCE6RSrKP42VWVQBJhIf7S1pf0kj6bgaN0PTrPtWkVa6bN0lncepQLbaJQyCiewYgmysZkR5zPHkW3yizy7/ZBpLroam3TKDNRXx8O8ypXK2HDaAkbBLlsSERsEwe4R5RtgFEW9IVtS6I7OdMIhai3rmiqsiBe9cVNQs20lIzuBSMGsvnHnk86RoVOl2hCuuqvTCejICFpBdcGz9mgBQiAQAkSQVwHaNxAxj3ccnXQux7SaorCtpmnoBVs7yhTTrrFd0wlR21wK4hdmVTKpcHFnh+jlx9OehrPZ7QsWa1yxSqPt05Kall1dTLFaS+V4DjGWK3/4CHAK/wDdbdU+y/V/iTXC2XU7FKUXhi+Vq0qjKyWE7HIsEXHEhHqgGT7hLMj7+jNujuoZgeUxpzY225THKRCS/FxEpLf5o88lKeyrTPb41X7HUvsnAyEX/ZU+2QMh4Ux7Tw8X+imVfL+RJD7i2zIdR01blmpywapokti2CJrYs44mBgUSJCQzIyMxMFHlOAVS719ihGiaKoWVi0aeodARrZqJZVfsfyFm1wl+mEMd7D4kskR8JgzPkQ8vT6xs1Hdb9MxpkoJ9fTdZLVZqSueGlGiuFFdmVTt4ZX/CKuB8tpFkjA/KydunuyPSqlRtCrptGvRfLCdTTUQuq6WxAslqBXCmSYiITzEtwER9wjGfroLso0zShYGmadR08WzBNinVTWhkxvxlnggHPjynjy34xO0cYwD89rWiVLWmX6l98Vqdyo6lYfLQR4a7gTVmRaz0Ccy2BDl5SZDGxctpg3ut9V2Kt9/TN/7H27Gk6ZVdR1bTwBcWdKYyUKTcSG8VLYEkTJQHKnBxYI+nkdkNd0BFpLK9lCbKGjINQ9YNS0Z94sWyCAx/EUTGeD0F2S6XpQMXpmnUqAOKCcNOqmvDZiJiJZ4QD4m0TMRy34xO0YBrzT2VUE9lVrUPZk+2akatRdcJYy8WWNbUKGC6Y8RcV0GERsUCPxpf9ozlYvru/p9rrqivVG1ipU+nGXtJC0avZGag3UGIu2Fyz4ptmtVSmIHciUBkyIH5Q2Q/6AUPY/sd7FU+x/heB7DFdMVPB/8AlezQHg+H/wAHDj+LPE1nsK0SzWrU7GkaY+pT2ipWbRrMRWjy8kKNUgqJ29UBA8vdO+AVN7NO0Wjdrdp9+oxJKIrfhwuR2ZXpaApA2VxG3JDiAzWyPQYlygiguWZEfQ06J2aOnSU+HenpsbDnrH/aWPsVFsuWJbES2TWJsJe8z4QKWA8YWHGzUdj2k+K932M0/wAWzUjT7DPY6/J9GAFfsbp8P42r4YAHgHyXwAB47CMDk9agAAKgAAWAwsViMCsVjHEQEIjjAQPpgYjaI8sAp12B9l/tFjpl7bnTdenpFd79GoaCxjX3ZfTmsx9i1ZhLjUKmExq01t2uLm5pceJWm7UWcdM1AuPORo2ygNuXKRQwoiB895mY8ozodGdiOjac5ljT9J06lYbEwx1SlXrtOCnchliliXGZ85HfaS8/fmbzG+AUA6kTVPsprVqzK/jWNH6drulMrJgHfu0a8+LAeqJ8U3B6/v1sj3iWSN132eabpHU/QKKdevSShfUKRMRBUmpelLEVNZ6ZaRGzxplkkRGLD95EWT/o3YVolYHrr6PpiV2mpfZWqjVBb3V2eLXa0BVxYaG/GKIomVM9Y8Z889rq3s9oahCYvUqtyK7Rej2qup8JcPyWq8UT8NkfXHacAo34Wo2+oOtQ8fp2m0mq09tvWpc27S0UqCvAOnTkVViqNhrnSR2lgyzy8UTgQ5Zp1x2MUPsz2b6QW1+lptHWGrJ8i2LA0KGmrquZ7wKJaS3wI+jcBiI4xxyzXWfYlo2pOVY1DStOvPTEQp1ulXsNAYneBE2rIuMTPKA34wXntvmRt6ZrE5Ngq6JsV1sVXfKly5C28PFWlsj4ilt8NfMAIRPgG8TxHAKk9m/Zjpx9S9ods6NdnAdNqDBJAo4noin3BAOO0TZYYeLx82EAzPnmedzDq+nW6O6cmxdrLEqVOsJusKCJsO8lVRIziJdMz4YJj1zttEZPWndOV0se1KEqbaMWWWLUC2WGCAqFjzEYJrBWALg2SRQAiPuEYyHu1Tuw07enq0nT6enafRdqtS/qHgVwrnxqvXaM6y0Khc27J101Scwg8KubJjxOIKICdsoV0n2WUGaT2k6u+omzas6j1SiGNULDGvpyWqUpUlEyHx62NmVcZkvD+dS+N9c8jTulqqQapNZClPY5rlrSsFtbYKTsMaAjAsY8yImmcETCIpKSmcApf1lerloXZwu61TNHmzoi9TYwxOuTVaMZ0QuFO6/BO9CSOHTwI/D5fNki+LVf17WnTpSyU9N3F60SJAl+G25V+xiLEr9Pj7hZNYH64Ty2jiWTjp3ZFpSqR6arTaC9OZy8SgFSvFNkmXI5OtC/BPkUQU8gnzgc7PQvZlp2lqlOm0KdBJFzJdOuquBnttzOFAPI9vLkW87eWAa4LfST9a07/oMk2QfS59TWbBCRCRTQNyulg5R58WleW7h98FP6fk2J7qnWkdU6u3qadir0dH0/Sae0bhF64hOp60YxPuYk21KUzH/ymD/zWh0voumixZtpq11Wrvhe12VpWD7XgjwT47RiDb4QTwDnJcR8ozjo/oinp6fZ6FWvTRzNng1lAhXNhc2HwXAjyMp3mdsA97Pw73T+Sf8ADP3n4d7p/JP+GDlaSj/cv/3mz+cH/hGXhyj3cv8A95s/nB/4Rl4cxLL3JFs2V99K3lX9ERmujvz/AHen8yr/ALb82L5ro78/3en8yr/tvzGvLuHrIsnU478R81P9JX3GMZUD1kMYxgFg+4x93o/MrH7aM2LRmunuMfd6PzKx+2jNi0Zb7t7h6zPJvVH78PzUPicxnOcRka9s3UFlQoWjcAbFkmMFwVykkpk0VgewSBM2WeXjfKUIEfEhFnGUNXEl5xkM9meluvUlWU3b9DxOYkiLVfU1wa2nBGm3aTYNwFMcIMWeFwHYBGfjM9LTepdSRcsURUWpClaHDZayvVJYu5jCWSIx4zNlEcGFcQ3LYmDy4rAlTbGR8ntmqLd7LfmNPt8ecJsMDixUmIC1ThnwzCSMA94lDOQbbjmerbBRExMTExExMTvEx80xMZ8qSbwRzgz9ZFHbZ15YVIUKRAFmyhzTecSQ1kjILEoCJjk1rGcVjyj0raX3sZK+2Vr7x15mm3VX5UditdAKhgmJJ6G1V2rPiAERMtWxEM5BEjMSgdv6Qsib1naY2Wbskcqt9lLO9OfBb7S0IybK6CqJ2hqNNZ5N5l6XvLjPd7PO8BTqV61HVOGmPSpddZMPenYFQQEGmzxAI3iN5W6FGP0TkoW+haL92QkIJkby6uRIYcT9LqxLYcT+M5jKsUe2TTmwQNMqxbjBJuLlJTzETD0lvE8gKDiN9+PKZgfDZx7ml9nWnhJFTGaslMwwtOsOpycx7xYVNqpLafvCn0l82Umlssr2bsLws8oSX2ksMfVlh+ZO7l0LT2dkqxnF6M6a5ViTt1H2P1gCbNOITfrARVbLGtLhMRylJkZntWdtAuCI4lHE5giWM5mnR/UEW6lW0MSMWa6XwM+8YasWcZ2mfON9p85/LlY2dEgccX2L1lcTvCbN17ExG+/GVc4WyPPafFhhGPkUlBFymTu83+VA0x8ipctVVj9RSz5LXHzcFiyAX9ChXE+YlOWK6tkVG8q0qVKMlkwy8XhrS3m9ZgWy7KllgpzaeLwzHb7fuz4dT0q5UmI5MSXCZ+9YPqWX/wBJwM5E3cE7QSs6QVFszD9McVchL5UKKZJW8fNx9SY/7rLNtVvExPumJj+3KRdJn9gOuG159FTWgmY38g8Y5kxn/m8cWjEf/wCwOS1p/lVoVt5/y5+SXa8kvzLRcv8A++7LXdzzzglbrP8AiorCtFccqLbwXAReLOc4ic5yWNfnGfNCBGIgRgYj3QMRER+SI8s+ucb4BznGcc4+mM4l0fTH9sYOcCA+9Doz5KhZTWsWIUTFsisk3sGDbVcJSC4kuMeznG+33348gaLrBj1VNQHjC9+Wn24jYL8s+dX/AMr15fArYx7yGI/GURnj6h15SV/SW64f87lj/iUZI0bxlZ45Kww4yp3jsSpXnWdZ5eW8O1WPa6N5lLZlpBuNW8cz40bDRtTvDL4tifJW/mqN/wDlyce7F024W6hbfXfX8WVpTFlRpOQB1pxkIMiJ4F4645berw/+HM7v94XQleR6tp4z9HtdeZ/sg5nPBu97vpxfytVrz/3fNv8A6YFnTab3jUjkzlFLy6vSSNzbAK1krbdQo1qks+H8qUln/DEmKM5yvl3v39Mh7rxsn6AqW/8AEkjH/nmN6h/KLaCHyRut/wCRAxv+tavIV26zr/Mjyp/kbFp7FL5noslX00pR/qSLT74ynzf5SKgX9Bpmos+jcUDv+g5mdJ38oNZL/d+nLjfo3Ywf2Krc63eVn4WPkUpfkmZkdhV8vTQyfx1aNL+ucS52+MpK3vr9QM/oenCD6PEY2f7d1Kzpn3lOtW/0WkU1xP14KZj+24H7GcboUn2qk/JCXQff/h1tj3SpQp/itVD4TZeXOcox/OR1+35K6id/oUM7f2k7/wDazganaC75WpKXE/MCURt/XFKJ/v4/jtVKb9VL82j6/wDFFHulussf96U/+uEl7y8sliCjKMF2L9av/pdcsBv7/Dkg/s8OVZK3dx7EtY062yxqGq2rwGmVwqwbTESkwKGD4j2xExAkHpgfKc7KdoqTkk6UorhNxzehNswbZc1js9KU426lUml2NKEa2M3qUpQjFeVssrjGMkCon5nIZ74H/V3UP/Df+7RkzTkM98D/AKu6h/4b/wB2jOiv3OX4X+RN3H3xs3+pp/8AbEyrsE+4ulfmFX/0AzPcwLsE+4ulfmFX/wBAMz3OyHaryIwrf/iavnZf1M5xjI3/AJ/9KjS7eslZkdPonbXbaanCaWUnnWsLJMr8aTFy5AQgJk9x48oId/swSSMZg+s9smnIDS2G/cdZeitp3hrYwrDLKTsKmBAJIF+CEsNrIEFj8oh5RmH9d97jQ9OsvrPfZMqfCdQbU0+9cradDI5DN+1Vrtr1d485FrIMB9RCMTywCaMZh+udqtCuWmwyxE/Zd41tPJYm1dhhoZZDZi4MYA0qMxYZCBfMXqjOyvtCqTqJ6VDJ9uXSXqBJ8M+MVGvbWWzxePhby5LB4c+fp347bTgGT4ysvdA62rUujKuo37AV6wFq1x9hxbAC3avfbEyU7zMz4ggIDyIiIQGCmRHMOt9vdPXerukBoRfhSB6gskVuheoLestOWlLUTbSmLC5lp+YcpD07wPMeQFy8Z17loVgZlOwgMkU7b7QMbzO0efujMCsdvWljpCNdmwX2NsDTNL4S6SKLz0163xML8aJY16hmJD0cty4wJTgEi4yM+0/vCaZpLlVbJ2XXHKJ66VClb1C5NcC4HZOvSS5iq4l6fGbAARCQjJSJDBveL0eNGnqCLkHpIjBlZBTjkYl0V5E0QvxwYtxeGxZrE1FBcoHiWwEmYzGOou0KpUtUKb2SFjU2vTTCFmXinXrstOiSEZFcChRnyZIxO20bzMRmT4AxlMu+Z3utInQ+o9OqOtWrK6Vqi59SjdfSq2mL8PwH6gpM1FM3PjPx2wH6SkZ9OTdX1cU6joOn/ZJyG/Yy2ydMGuLFX1oVUTLnWSURImmw4kABoS6WzvygSwCX8ZiPRfahS1BdttZ3IKNy1RtywDTKLVIuNhZw2AnZe8Fz+QQEJQRQW+YBX7aKWov6bdS1WwhOqnfdVrRSKB1ZNWszxBcVhHi1Fp8rKz3V43p25QYzgE24yIe0jvTaPpdv2B7bNi8Kxc2pp9G5qL66C84dZGml3gBI+uIZImQeuAKPPI67mfXdah0Np2pahZCvVBV24+w4pgRF+pW2xv7yIylogIDBGZkICJSQjgFo8ZGnZZ3hNM1hrq9M7I2ELW9la5SuUH+zuIhTZBV1CDZXbITxaEFHzTxnaMxvvj9ubOnen7upVxkrQ8FVImu6wr2hk+ibEJj4tWwlHiMNYc/DDnyYsSAm/GU67yfb1QdR6a1Am2KlNXV2n+1tvU7mnEIU6V240/AtpS41fFhAyIFBn6R5EPHJ27HO8XpWulaXQa6XU5X7RXs1bNOwsHwRIb4NpSmSp0BMgcRt5efGfLAJPxkM673udBr3Tosts8RNldKzYXSuuoVbjiAFVLWoKQdNDzNghwY4eB+R+HPlkzYAxkM6x3s9FVqB6aDbdqyl4VrU0dPvXa9JzJgRXbtVkMrpKJKBMZZyVPy4XsWZ7oXaLUs3r+nJbJW9MioVxcrYMKG6s21pgyGFs8QFnPxZFw22njOAZTjIsud5bRV6avWGXPD05lyaEWmKcCxsDcZQLxOS4lShtKMJecCoRHnJ8fVnS7Nu9ZourW4o1Hv9oYk7NaLNK7TC9XXMQb6LLSFBaUPKN5UUzt64gh9WATBjIZ6372ei0LrNPNtu1brwubatO0+9qEUhZG4FcOmhy0bx6uBn4sDxLhsQzPt9qveE0vRjSm45pW7IkVejTq2b11wB5EYVainNhUT6fGMQVy9PPfywCS8ZUvvM9ttPV+hOoL2msdIQh1Ioch9V6rMPVXalinrW0GLJnCfT8ry33gsnTTu1vTo1KNCU4nagmuLXJSprRqpgdllceASiqTYj4tTmA1npkQKCGZAkDGQzrve50GvdOiy2zxE2V0rNhdK66hVuOIAVUtagpB00PM2CHBjh4H5H4c+WdvtG7zulaXbmi+br7IJCzYXQ069qE1K7JIVvtzSQ6K6zkD48/XMDvx24yQEt4yHO2voJ90Bth1Lf0KqitJ71fYVJ8TzZFm2y5Waw1iPEZR4iQ4iW87kWfPue9pl3WOm9L1HUIH2uwpsNMQ8MXwmy5CrQr2jgNpSgsxAiI/G+mBHjgEz5+He6fyT/AIZ+8/DvdP5J/wAMHK0lH+5f/vNn84P/AAjLw5R7uX/7zZ/OD/wjLw5iWXuSLZsr76VvKv6IjNdHfn+70/mVf9t+bF810d+f7vT+ZV/235jXl3D1kWTqcd+I+an+kr7jGMqB6yGMYwCwfcY+70fmVj9tGbFozXT3GPu9H5lY/bRmxaMt929w9Znk3qj9+H5qHxOYzB+2Wsw9NsiC2O5QuHLSIMcdaWhFoVLOJBjJr+JEBPy/dHnxjM4jPE60S0qdsURJPms+EjBcJJsqKAiD3HjMltEHvHH3/NkoauMYodp6LC1DpQ+2QwRhTFDIU1Bx9JMdIwIgI7TwWJnxJfo+MXy9nStPVp1ZrXvjaPEs27LZgBmYHkxhSRTC1gI7RyMuCxjcy48sw/Re2TR6en1oi2mIBC1jWWcttc1hxJMo2ix4wkBiyGLA4IGc4HgfGM+p9etayQHbAq1ADFqNOmY8VhhMEt+oSMzEkJRzVUGeCZ4mfiOFfs0Del8ULvpuVR9lvQWlv4Lj0EhZLFVtMkorN9qW8v71HWr9TM1Oy7UmAa0NEUUUMghKKiykoewD84ZaOfE+QuRV4YTDOItLLu75rHC9eoJZB1VIrv8ABlklFN5G1RKSM7wCWLWBykCEEmHkG72FkP8AXnX0sJlCgyIftEWbI7EFJTPECCngwShvMPLj5gPr3XHE86PQeoTo1hVtAEXCZXcDlJNctk7uXJnPxs7wL6sGfpISUEjyIHQOxm6bfba1S9qzcISTyaf3i0LNwYrQ99rMYGyDZNd9gnTuyPZTyllzWinjrett51vJ4veL275AHe0KZXpwiXqmw+ePzTE1GqEon3QUOakP+RrPm5ZOmm6kDlraooNbAE1lHuISjcZj8sTnhdednVPUlCq2qWCs4Ysga1LFsj3GtqTWwJ/IW0/PvmwqM9rmpNaGRtvs7tNmnRi8HODWL0ZynV8BOGxEQUTFiRgo38y2q1vf5eU+Ivz+9/F8rwbPZ7SGSlSfAGCbERWYyvEqWiK4coSS+X+1T58hLcvfyjllh9a7qG0RFLUXqGJGYVaWFwS4t8aBl0yuzt4syUyTWT/hmEah3e9dVtAhp1uN9p8Oy+qXGWy85mG13RMsbwLiJjA+qN/vsskrVZK6wqxTWqUcV8TTb2N3vY5Y2dvNvwqYPDli8TF+zjoK/avLqK1S8KAgZtFMVWEpYoaBkomIn4xlsQAPEhsAIuniXvy43R/SCKNcK1cZFYcp3IpMzMykjYwy3kzMpkpKf/KMjvu69n1mol77qfAt2TgSV4i2SClm0xiTURrmTa5zPTPuIYn5OwyD1r11U05B2bjwQlcbkZzt5/MIx5yRT8whEkXzROVGpZrJQqyqUIRpp6ZRShilrwNzXNTt1SzU6VolKrXl9ltzeL0RS044YLDPnxPfmYyg/f168pNt6eug2XatSsQfFA+J4fnBQBEP/a+KtcwuORxxnlEchztdad4TWep3FR0BbadDeQbeLcWtj3TxKP6KJj7xcyyfTyJcSQZM/YL3RKWlDDGD41mY3NrIiSmZ98R9Uf8Ahj+uSn1ZDVpytqdOksIPtqr4n9hb/l0eU3Hdtmo7GKkbbeEsbWova7BBpvCcWv8A9Us6pxcW/wCUsZtPPk50RRHfG6kMYhPT4jO0RuwmzEz9O0wr9rPhPeF65b/R6XSVHzTIzM/+d2f2MuwrQEj7lhH/ANMZ9h08I9wj/ZGZKsdT7VaXoyV+kh5bI7HF407uoL8W3T/OoUgnrftAd8maqN/qpXO36QOziOn+v3fL1UA3+YFKGY/Rpr/xy8sKj6Iz9QOP4BPTUm/XfwwOf/LZR7nY7NDyWaEnyzymUVnsC6xf/S69bDf3+GbR/s8Nis/QdzDW2/0+uX2b/Wc7z/TezL074KcbnUXpxflnJ/E+P/M7yT/l7XT/AAWahH3qGPvNWNnu4EzqNehstPdHg+K5hMiTGZWRxESUHER8j3iXyssFR/k5aMfLa0vys/dEM63ZD/tfXus2PeKEymPoghisv/FTP0surmBYbDQmpylFP+ZJRxz5k8N/yFu2U7Kr0s87PRpV5Qf8FSnVycIY1KkNsbeThn7JL0FVKH8n1pA/KCS/HLXT/wCXiRH/AJZkVHuN6IHvrhP5Ykv2pnLE7ZztksrHQWiEV6qNd1Nkt61O3tVV/wC7PpIWod0rRV+6nX/qQqJ/t475kNHsA0tfyayx/IIx/hGSRnHHO9UoLRFL0EXVvG11e3qzl5Zyf5sxRHZbSH3JH+uN87yehag+5C/0Yz38Z24Iw3Um9LfKzzVdOoH3KCP/AKYzsDpq4+8H+yM7WM5Phts+YoGPdEf2Z+oCPoz9YwcHG2c4xgDGMYB+ZyGe+B/1d1D/AMN/7tGTNOQz3wP+ruof+G/92jOiv3OX4X+RN3H3xs3+pp/9sTKewX7i6V+YVP8A0F5nuQD2OdvmjI0rTku1CstqqdZbAJkQQGCQEhmPpiYmJzMvhKaF+E6v6yM4hVgorsloW+jvt11212io1QqNOrL/AC58J8RJua/OpumCs9Saj0SaiKhqeu1+q7e4l4bNJmot9xBTHlwsa7VSqfP/ALVnzl6bb/CV0L8J1f1kZ8/hH6Dvy+yVTfbbfxI329+2/v23z722HCXKjC3Ktv3FT2c+gq13MUP1LUqNe0JyHQVG7osyYzHPVm3H0BMJnyYKdFpJ9UfJm9tH/F2ezbtz0vQtM6i0rVz4a0Wq661mnMWwresFqFhx0WU1QBFbXdrmhKzDnEcdi4wOWbV3jdBHeY1KpHKdy2MfOdojedvfO0RG+C7xugzMFOpVJmN9p5jMxv79p28t/nxtsOEuVDcq2/cVPZz6Cs+vaWzQdJ7Ni1gvZ6+k2q69Teyd10nM0a2isLyjyBa3MFEtn0BMDuXqHl7HY729UNR651Zq2xAWdE0+pohNE1Rqyqr9QfbfR8SA8ZC3eMHih6DFRGMkPqywLe8doJRMFqVSYnymJMZiY+iYn35x8I3Qd4L7JVOURMRPMd4idt4ifftO0eWNthwlyoblW37ip7OfQUk07qOqzoPpDkyH6fpOuaRPU61wTJqIS2yx4X0jElC02zrMckwKeHEuO3HlJdnvI6XqXXWgOr2BPTlafqlGrqMiY07erXG0oKjUcYQD3LVCd/DKR5O4RO4lGWR+EdoMRMfZKptO+8cx85n37xt8/wA+fhfeI0CIGI1GnEB8mIIYgfKY9MbeXlM+7G2w4S5UNyrb9xU9nPoM266rsOjcFQyTSq2BWMe8mSk4AY/HJbRmu7We3jTX9JdI9PVGzYvlb6Vp6jWWtnLTirXaftEXtw2rHNtQpWtkibSLkIkIlOXi+EroX4Tq/rIytWq9pbdbvaXOr29A03TdM1FOqsXR1CxftahdpRPsUSbaNJaKq2yLi38VpeEsPT8oeNuhwlyobk237ip7OfQZSHajp+gdX9Rv12yFBep09HZpVu1BCh1WlWaq3VS+YkIcq2ROKtBCZ+Os4AvKci/qTp+wzoLqy6NZwV9W161rdRBqNb40hmq0GG+UEIsX4tatYvQEjvINEvvstu3vG6CW3LUqk7TExuYztMecTG8e+PmnPr8JTQvwnV/WRnO2w4S5UNyrb9xU9nPoKz9ovei0e91Z0g6tcWzTKZ6v4upxBxQm/d0yUVKK7MxCyteHJyaRmSGWpCdiLjly+slvmnbitO1maz4rzvts+VFCZ3+b4zjmCR3h+n9oj7IU9hncY5DsM+fmMbeU+c+cfjzsfCV0L8J1f1kY22HCXKhuVbfuKns59Br56t7cNKDs2Dp6l4rNXiopeq0QrvmzQNFtb9ZuaiPh7pXBi741s+s2q25Ry42h1vtL08+tun7c2k+xXunL6dMswXxNy3Y1PTxBFc48mMJQ84gfeHn7sl4e8VoESUxqNPctuU8x3KI8o5Tt57R9OfqO8boPl/8AEqnp+T6x8vLby8vLy8vyY22HCXKhuVbfuKns59BU/t4s26Wt670zShgM65nS3UmLGZCrDQZQ6jsFMR710KgWJ894Jol6vkjKPa+dLSOpehFGS6en1Kmu0apHPFUOKpp1WnVEvd4rFwYKCfM58o5Tkvl3jtB3gvslU3GJiJkx3iC23iJ+bfaN8/R95HQp231KrO07x8ZHlPu3j+qcbbDhLlQ3Ktv3FT2c+gq10B240tCZ1pWuyyepbmv6m2nQhLWXtTQ9QBoQ04ESltbwuKw2LhX+MkvDj1FgljVof2edJMpWgGvpGraTOtuGqV8NOisLjcd2kJrJy6dt1Ow9Ez8nifuHLvF3jNAkoKdRqcoiYgpMeURPviJ23iJzkO8foMe7UqkbzM+TIjeZneZ93vmffjbYcJcqG5Vt+4qezn0Ed92BOnXb9/Vl6/HUmpxWrUXXUoXXpVaksdYVTqLREp3JsG50TYsuGfD5SuCAS7f8oAuZ6T1LYSIRbpZu4jJSNder0GWWSMbzIrQLDLb3CJT82ZwjvGaAMbDqNQYj5hMYiN/xRn1+EpoX4Tq/rIxtsOEuVHG5Vt+4qezn0ELdsnVGmdRal0SNV6NQonr92zDFT4qDbpWk3LI7FtwOAdwiZjkPLy94lGero/UKEdoOpJewEWLvT+lr09bPSVzwbGpOsSqPLxZTA+vadxAfoHJQT3jdBGIgdSqDEe6IMYiI/FEYnvH6DvE/ZKrvG8RPiRvtO28RP49o3/JjbYcJcqOdyrb9xU9nPoKMd3TT6tihT6e6g6k8FsarK7/S69OBGoWtS+yU2Yi5b3s2rdSxY8O0VpIIUSSHk5YrLjs0Pfadtt9p2+jf5t8jH4RmgcuX2RqcttuXMeW3v239+34s+vwldC/CdX9ZGNthwlyoblW37ip7OfQV47knbjpGmaRS0TULYVeoY1CzVv0HCydQdqlrUG/HEsQljl2IapkW45JFPGSYIrLj3kdtNDQeq+sC1JkqfdToLtLrCBnY1NSNPYjwqKwiSsO9slqfDDziSGZ8uRDOfwi9A5c/sjT5bbcuY8tvfty232/Fn6LvG6DMxM6lUmY32nmMzG/v2nby3+fG2w4S5UNyrb9xU9nPoKDo61oO7O9FqW3Lnh1NSRriOJGdSX69cu2lWEiBMgoVBnKuBHIcZiC5DysrPaBT6k6r6eZorQu0un1apb1DUERJVFnfpew1aKrER4bHs8Q3sUBegFDM+fkPY7e+u9K1MtC9l1PTxDT+o6GrW+buEmioq1z8OBAubpcxMxBcYmOU8vT5y2nvG6CMbDqVSI3nygxiN5nefKPpnzxtsOEuVDcm2/cVPZz6CvXdX7cdI0VOpabrFtdLXT6g1Nlyu4We13nXLplUs11iJNtKdWlALYvxB4j7xjO+ntf0zQur+qH6472R1uvo/wBh2NU1k29ORT2fW0/gDJYyNRl3i1letrSXMAXHcZ0LvF6BJQU6jTkoiYguY8oiffETtvETn6PvHaDMxM6lUmRneNziZidtt48vKdp2xtsOEuVDcq2/cVPZz6CjlbrBd7oHqCqcnW1RvU0fZGiUcLlFurdVJJYOWUTKzlXPjygomVl8rjk890XWK+hPt9K6h4aNbi2+ym4yDlnUtaxLXq1OWnJMfaWAGm2vxC8EkeRcfIZqHvH6DEzMalViSmJmfEiJmdtomfp8o2xPeO0GZgvslV3jeInxI3iJ23iJ/HtG+NthwlyoblW37ip7OfQUY7umn1bFCn091B1J4LY1WV3+l16cCNQtal9kpsxFy3vZtW6lix4dorSQQokkPJyxWXGU+9J2oUNJ1Wzq2i6wtPUiIp1L/T7BNkdQJgomtXGtwh3tQrsl7Pdp84HkSy8vE42T+EZoHLl9kanLbblzHlt79t/ft+LOD7xegTMFOo05Id+JSYzMb+/affG+NthwlyoblW37ip7OfQYV3nui9L1S50vR1VqBBmqtsq06zXZYHUTRp1qCrTICaV+F40OmXzwPhwjlJRk/UqQKAFrEVrWIgCwGBAAGOIgAjtAiMRERERtERkcl3kdB8p+yVXynePjI8p228v6pz9/CV0L8J1f1kY22HCXKhuVbfuKns59BJmfh3un8k/4ZG3wldC/CdX9ZGfhveU0Laf8A4nV90/8AaRnG2w4S5Ucq6rbj3Cp7OfQVs7l/+82fzg/8Iy8UZRvuVnE2LEx5xLzmJj54mI2y8kZ1WTuSJjZX31rfiX9ETjNdHfn+70/mVf8Abfmxec10d+f7vT+ZV/235jXl3D1kWPqcd+I+an+kr7jGMqB6yGMYwCwfcY+70fmVj9tGbFozXT3GPu9H5lY/bRmxaMt929w9Znk3qj9+H5qHxOYxOIznJQ1cVSfRTTvXKrIQp6zZZCY8MCZStOY5bYmICYXDZakh47C1RebPllHnWHX53DOpQZwSuZC7eGILw5kSiFpWURLvVtDGBJCrltPKfQVzeq+g6V6AG7UrW4WXNcWErbAFttMjzieO8TIzt8qJ2nyyG+07u8wqCs6WHDjJGVNcen1bk0qoT6YMpmTmt6VO5Oj0k2CGo2PYrY3eDtVpk5U3LLjTazKTz53vrHezH3fV8W/c90bCkquThl7+T4m9leX8yENMpAgIEIkIEyKSMibINcfI5Ywpk3VrZFz8SZIhMhncfi/D9XpPo5+qOmpU3WIx4dt5RBhSV99X+o1+/qrfegPrKCgRUPd7P+zC9qx8QBlKmsiW+0xcgwpiZF1WiDI3ao955POOCS5AEsMneDbHonoetp1cKtRUKUG87R5kZT8pjDnzNh7eZl+KPcIxm07VboUo7VR1ZOK0R8n95jTNx7GKtoqfxVuxSysrIfbTlrljnwx153739+j+llUqqKqecqQsVhLDJjCiPeRmUzJFM+czP0+Xl5Z7UY2zmMrTZuJJJYI4nOOWeN1V1dWooOxbctCVxubGFAjH0RvPvmfdERvMz5REzlMuvO83qvUTi0/pxTK9XeQbqJxIMIZ8p8OfemJj1Rtu+YkZ+K88w69qhRwTzzfawWdv6cbzFkum4bTeWM44U6EO62mbyKdNccvtS1QjjJ6iZ+3zvfUdHmaqI9u1KfSFRM7wBF8nxjGJ4fiCIJhen0xE84g7pHsB1jqawOodQNOExO6aYzILWM+fHhE7BExtvtJMP082bjxyXewPue1NMiLFj/aLZeonMjcuU+ZcYnfhEz7/AJRF85FljkVxGNhiIiPLaPKMxI2addqVo0fZpLQvxv7T9xYKl9WS6YuhcyxqtZM7wmsJy1qhD/Ig9eeo1paMf6K7P6tBQJrqBYhERECMDG0fREe7MmHHHOIjJZJJYI19OcqknObypPPKTzts5jPB6w6rCmmWkJsIi8NKVRya9siRCpcfWmAKfxCJTmE9rnbgihBIWcFamRWRzEEijLeELfeLeIWuJas+HyyAufHgJmPa1TslB3CwNyy20tq7KHPe1laDEoMY9kS1NaVFHlEQG48uYzyESzrjUjJtRabWZ8XlDi0k2tJ1urdY1AqzrLlso1k1zYaqrFN1BhiQlEQcgVdIguC58CaUkRcS2ETZ8uxDqi0+ChxywPAS3iTVWWVHHvyrMuJ4rswxfh2FHCxOAMoKBjw4LJEdosJGI1BZU2+UciiSQyfm8Jwc1zJ7TMJI/GGPeO3qzF+idarTrNhOnNQdU6Q27i6/g+Gu4x8rS6JX5ky0pb/F2+SSFkXKX+ntPklzPjaPYSn6Bn/DPrnh9b6xFepZcXuUhpz/APSEl/8AbOJNJYnZSg5zjFaXJRXpZUvuMB4+qdR3vf4tyRCfxS6wyYj+ow/sy6OVG/k4NJkdKtPL3vusLeffMCCg/ag8tzkbdq//ADxb38Zc6TfxLns1mnfFaEdFPJor/Zpwp/pP1jGMkykDGMYAyKNV7azGxClVVEJuchEWLyq9i46vOzgp15BniQPmME1it2cQmFwXMZB6n6gCpWsWmcpXXS1xwMblIqCTmBj5ymI2iPpzAOj+yeDcvUbjDN0tK4qptXKrTY8IiYUUKlssiP6Qxf4TW/G8OXEsAz3p3qhFoCNJwXA5WwfcxTB+UtoT5gwfnGf8M9jIf7WfZqrQt1Yn7LSxYimr6n3FzMCxdhAzs1S1STebY+K4biYyUiyROmOrUWwk0kW8TxYpgEpyjj3g1RxBgUfjjYo4zElBCRAe5jGcYBzjGMAYxjAPxnj9TdNpuIZWsLFqmjxNZxuJRExMbx+KYiYn3xMbxnszGcYaxzM+oScGpReDWdNZmmt9Fbr3cv0+SmRWAxMztEctoj+3Ph8Cuj9Qf73+eWaxnRtMOCuREvu1b/CKntJdJWX4FdH6g/3v88fAro/UH+9/nlmsY2mHBXIjndq3+EVPaS6SsvwK6P1B/vf54+BXR+oP97/PLNYxtMOCuRDdq3+EVPaS6SsvwK6P1B/vf54+BXR+oP8Ae/zyzWMbTDgrkQ3at/hFT2kukrL8Cuj9Qf73+ePgV0fqD/e/zyzWMbTDgrkQ3at/hFT2kukrL8Cuj9Qf73+ecfAoo/VH+0v88s3jG0w4K5EN2rf4RU9pLpKy/Aro/UH+9/nj4FdH6g/3v88s1jG0w4K5EN2rf4RU9pLpKy/Aro/UH+9/nj4FdH6g/wB7/PLNYxtMOCuRDdq3+EVPaS6SsvwK6P1B/vf54+BXR+oP97/PLNYxtMOCuRDdq3+EVPaS6SsvwK6P1B/vf54+BXR+oP8Ae/zyzWMbTDgrkQ3at/hFT2kukrL8Cuj9Qf73+ePgV0fqD/e/zyzWMbTDgrkQ3at/hFT2kukrL8Cuj9Qf73+ePgV0fqD/AHv88s1jG0w4K5EN2rf4RU9pLpKy/Aro/UH+9/nj4FdH6g/3v88s1jG0w4K5EN2rf4RU9pLpKy/Aro/UH+9/nj4FdH6g/wB7/PLNYxtMOCuRDdq3+EVPaS6SsvwK6P1B/vf54+BXR+oP97/PLNYxtMOCuRDdq3+EVPaS6SsvwK6P1B/vf54+BXR+oP8Ae/zyzWMbTDgrkQ3at/hFT2kukrL8Cuj9Qf73+ePgV0fqD/e/zyzWMbTDgrkQ3at/hFT2kukrL8Cuj9Qf73+ePgV0fqD/AHv88s1jG0w4K5EN2rf4RU9pLpKy/Aro/UH+9/nj4FdH6g/3v88s1jG0w4K5EN2rf4RU9pLpKy/Aro/UH+9/nj4FdH6g/wB7/PLNYxtMOCuRDdq3+EVPaS6SsvwK6P1B/vf54+BXR+oP97/PLNYxtMOCuRDdq3+EVPaS6SI+yvsFRphyStoiZmZiI98z88/2ZLWfrOIztSSzLMiJq1Z1ZOdRuUnpk3i35W87E5ro78/3en8yr/tvzYvOa6O/P93p/Mq/7b8jLy7h6yNm9TjvxHzU/wBJX3GMZUT1kMYxgFg+4x93o/MrH7aM2LRmunuMfd6PzKx+2jNi0Zb7t7h6zPJvVH78PzUPicxnOcRnOShq44xjGAcYjOM8rqLqRFRLH2WglS45GxhQADEfPJFtH4vxz5Zw2ksWfUISm1GKxbzKKztveSPVnIL7eu9lp+iRKY/2u+W0LppmJKCn5MuON4UM7jtGxMLf0gUbzEK9o3eu1LW3Fp3TKmArfg3UjGRnafKZVEx8VEx7jmCcX3oLkeWZH2Zd2ajoaxv6lLLl1rBEZ4E5zXtnyBK/VMmU7zM7lO3KZLb05EytM67yLPo+1VehfgX2n7jYNK47LdUFaL6by2sqnYIPCpLfTtEv8iD1Z6rWhRwME6d7GNb6rsBd11hpqQXJNEOSwCP+TeeEzHlJTMun3Sa+IjlyuguzOppyQTWUACEbRxGI/wAMjrtGoahNQrUVSjhAijTBe2BVBntNq6VEvEsmsNt6yDYoNynd0iLRyvsT1uXoeQ2pt1xskFdhSJMEQERauS8mSsXQzwpdyaSuM82CSyzLoWWFHF6ZPTN52/T8FmIG9r/tF5YU3hTs8O42eCyIU1+H7UtcnjJ77JIznGMzCtDPw2fKdvftO0Z+8+TmwIyU+6ImZ/JEb++fLAxwKg9B3RfXIXzDLZyU6it0RD5sT8U72hUwMx/R8I+LACAB4iMekfc6X6r1TSS4pn7J6fH/APJvcY3a4+W/s1pstixERBQus7wBH0xDhgchqxoybhHdLdTrDpsRZXPBoSbZuS2Y84mVVprqVDoMlJIVx5pLPb0/rrUK8xDUxdTuiOSygbQeMRACpA5gbDBHw3ObLFCMFvC9i5LoFr2LXvdtWVssE9tU+znT38+fBp5pYa009SOmxbOLpt0v4O1raZQlkQm+1eGbFSWjHU83GWf6b7xGlWZhbH+xPmJ5VdQD2Vvlvy4yyfBeIxE8jrOesfnPPj1jqlUdR0ltd6va32TqmtJJkrNU6zrDPFiJ34JlQOBvnsXxcednIQ0Xr3TtRjweayOfMqtlcA2JEpjfwXREzEEM7GMceQ7xOeppug169zTgrJShztRRt4QAo2CuGtfM8Y5FEI8aZ25eZ+r0kwsxrJsqrSrxstooOFWU1CWdrDF6cGsff6S11LqpSpOvRqqVNRbi1hLH0p4FscijvUax4HT+qH7pmo1cT+No+HH/AJnkrxlbe/8A634XTr1/O91Zcf1OFk/3Vzl9tc8ijOWqD/I69jtn/iL0stLelaYKX4ctY+49TuNaP4PTlLy2lnjNmfp8RzCGf0ZjJ+2yOu71o3s+i6YrbaQp14mP+Lwh5T/XO+SLnNmjkUoR1QS5EdN+Wj+IvG0VuHaJy5ajZ+sZ52u35UlzRHmS1MMRmYGCIQkhGSnyjlMbcvmyB+j+0y+6xZlNgr3gVK9zwwSkalpbIkmJpkEy5Flc+iPaDb4pD8hcblmUQhYnGeZoOvJsqB6DFi2REiQz/bBR7xKPdIz6onynPSwDBe0JrXNracpxV/awsNe1YhLYqV4UDRTLANYMYyyhfOQIhAmSMbjzX+dJ7Iq6AUpL7y0rCFwmLr5XIDHEI9RSYcI22lRrmdvVy894o7Uy9r1Z4y1qS09KFoZXaSmqmyPjtZBj9+zZQeEYkPBe88oaQj5Ta9894PWNTISjYhFldUFHzetNZbVn5ecoYrf35TLZsqslkrToVFLKg8MyTUs2ObOvITlG6K1anGpHDCXH9CwSaNLTlm2ZFIbbsc5hmcxH1muM2n+KJKfxZCvUHbJNnUK1zSkk1FVTwsNchtaL4N8PiisbgWRSsl+ILpAk8vTy2YRZhF3s+0+Dh1yItNjaBdqbyusGfOREDuG0h+/2gP8Ai2zzdY7edNTB8GssSqDkgqJNsjCgljN52BceGERJev0CQzPkWQFfZTarU8i7qMn4zWU+RYpY6M7M1XZZ7Msq11Yx4scPe8C4PSvUyrtZFtE8lWFi0N/Iogo34lHzEM+ko+YomM9fMB7EenG1tNQtw+Gwye+Vb7+CNmw2wCZ2mY5KBggfGeMmJTHl5Zn2+bLoylKEXNYScVlLU99egrMkk3g8VvH6xjGd58DGMYAxjGAMYxgDGMYAxjGAMYxgDGMYAxjGARP3he83o/TFT2vVbHDlMwisqBZbtFHvGumTDlt98wzWoPTyMeQ75l2b9dJ1TT6WpVxaCL9VFtIugRbCrC4auGCBsCD4lG8CZx+Ocpn/ACjvdx0hOjdSdTGlj9VdUoVltsNJy6YzcqVZ9iUfprk0T9ZRvPqZx8PxneJaju0af4XTnT6v/l6JpQT/APTRQM/4YB1e8B3ktJ6ZqDb1V5BDTldaukPFtWmRG8rrpiY32jbczIFByGCMZYPKEOn/AOU40abVetqWm67oQ2z41rer0Br1Wb7bSTBcyQiZmIk4A1hyEiMY5EMx9Ud2TT7vUNLqK0T32dPqlXqVWysqSDk5MbS1SrnFkeZ+uWF5+GUQMpXMQL/K0dWUw6XnTmALtQ1O7UVpdcRg3+OmwpjXKCNz8k860mEfKtLX/wBpgF2YnOcxLso0J9XStMq2S5Wa+n0kWC35ST01lraXL592CU8vnzLcAYyr/fO7x+vaAzSB0XQz1cbz2rtEKrDfDgJTC0B7PPxTrEMZINduEeEWwM9fh2cXPlHlMfinbePxeXlgH0xjI57f+2yr09pNzVrk/F1lzK1QUQdh5elFde/37WSI77TwHkc+kCnAPF6u7z2n1NeodOQq3b1O8snSFRaTVSQO8+PeYx6vBXwAziAFpyI/I3YmGTBmq37Kaz0v0ze68swkuqOpL1WY9pVLBp6a+ZNNQFSUSvkpQHw5+hQVVzESgs2mVuXEeXyuMctvdvt57f14B9sZ09T1RSFm5zFqSoSYxrTFa1gMbkZmcwIAMeckUxERmFfCF0D8OaP/APqdL+NgEg4zA9P7dNEcwFK1jSmtaYrWteoVDYxhlAgAALZIjMpgRCIkpKdozPMAwntZ7YNN0Oky/qlpdSsvy5HMybDmJkVJWO7HNLadlrEi2gp9wlI1bH+VV0gYCw/ROpa2mMMRDVXaaMU55FtDJIbE7rn3x4fiMn5l7+nLW9pPRWm3a3HVa1azVrMC7tbADUo6u7BfPPyjw4gt5n0yEmJchIhKsPeo76vTLNF1DTaVyvrd7UadijT07Tom8TnWUkpe/gCxYiqShk+rn6NgEi44BbLpTqmverIuVHA+rZUDkOXO4MWweQlHlE+cT5wUQUT5TETExns5A/cb7KreidK6Ppt/020pcxy5mClJWrTrUImY3jdIuFZbSUcxLaduOTxgDGMYAxjGAMYxgDGMYAxjGAMYxgH5zXR35/u9P5lX/bfmxfNdHfn+70/mVf8AbfkVeXcPWRtHqcd+I+an+kr7jGMqJ6yGMYwCwfcY+70fmVj9tGbFozXT3GPu9H5lY/bRmxbLfdvcPWZ5N6o/fh+ah8TmMYjGShq4/MxjOjrOtJrrNz2ApSxkjYwoEAGPeREUxERH0zlOO0/vfXdUeWm9MKMp34t1EgmBEZ8plInGwx9DWRyL1cFzPE8xK9phRXZZ5PRBZ3LyL+0T903Habzk9qSjSjnq15vIp0lrnN5lxRWMnvJk3dvHek07QhkGF7RdKN1UkzEsLf5JMnzhIT9Y/OfPiJ7TGVs0rsz13q942dYM6uniXNNJfIIgfmmRnz5be9jN2TyKI8GOOSd2D9zVVU4u6iZXLxzzJrdz2OfOZHnMzy397Dkjn/h5bZaWnSFYwIDAxHzRG2YSs9S0vKr5ob1JP+t7/k0eUs072sVyxdG6Vtlo7WdvnHBrWrLTeO1L/wBjxqPH7OYj7p3ojTtBpEYLBSUBvMjERMz7oiN/eRltEblvJT5znX1Lo7UrTUXGPWo6rfGraeMDKJghkCG1YlZNJsrKYE0wAKPz4ujyGPe1146net07AkdOl7OuEFt4TrDEe0G+Yidz8MHKBcH8hqyOB38Mi+PTnabq+nQCjWGrUw3GJEpVqYh58YIrDvZrMj6Y5EaCmPfynIt7IbFRtMrJN5DhgsXmjjqx3sOPBFWnYbVaIfxLxnKbblnypeV45236WTMPaDKxn2upZQcT7lqbbVI/Wh6FyER/3nhzHvzE6HVKJ1xBrUysFuk9ZssJKtF162IOsChbxNrEqmzMzwjmBjsTIX6edO7z2mlG1hd6if3w2aTpEI+sdmrFmmA/PyKzG3z8c8PtV7adKu6daRVOb9g1HNVSUtKZtLjnXZDSXC1it0AXj84gCHyLlxjJ5W6zuOUqkcnXlLDlxIt2eqng4vHVgyfMZ5fTmrC+ulwTyBqgYMztvMEMT57TMb/T5+/PUzNTxzoxxnl9S6NFmu+vJSEPUxUkMRMxDBkZmIKJifKc9TGcgpj1L2Oalp0bPXNyqO0TbogUnASctcb6cyTF+QivdLLPICZGw8hHMV0rXwsDJqYspmZncSiYW14zG5x74irWjjO8eoCGdvTl9pyPeu+wfS9RmTsVRF08v9pQRV7Mc44lPjJkGTMj6Z5TPl5e7Juhek4JRmsV7zW15bDKNeTqWeWRJ/ZeePSsfTxIqPY6UC6xFcEC5zGLhEHHE1wsWTXjxRmGK4LUxjTCRL0r2nchy2HZj2C0NL8E1w19pSIR7VZc57ePEIZ4cNYYJhkhEkKRCJ+flMkRdfst7CFaW9r/AGqxcYcSCjswnmlZQqCDklaoZMykPWQc+PlMlPIilGZyPt1SnaKimorsdEmljx5yxbHrqqXZZ3TqTxlJ4tJvJWGjDHD0vBajnKdfyjlmTq6XTGfVYvRO0e+YECX/AItjLixlLu+Ez2nqTpmnHnwfDij6Yl6Z8/6kHkBeXcGuE4x5ZxRuDYUlutTqy0UqdWs/9qhUmv8AkkXA6fqQCFBEbQKwiI/FEREZ6MZ8669hGPoiMwLto6vKrSaCfO3aBiKo8uGzSWXxklG8iCo9clt7+Me8ozNnUhSg5zeEYrFt7yRTGnUnmztt/mYz1z1jUs6jWrtNjaCF2TtyoWTXi6J14qrsMX5FEL9pLhHIeYjy+TxzO9O6m0xISSW1FAXnPheGHLby8xCImZj8mYV0L246OpCa5mOmktcLmtaGUQEjG0wLZjwWR9BAwuWZOXapocRvOo6VHz7zbqR/+8zinXp1IqUJJp76lij5lTlF4SWDMR0bqusnV2mkGpo2Ugtj5WQU26h4nIJGZ2gGeFJCw+IickG87jvk0RkP9Td4zRyWxKWzqRmMh4FNZPEuUbbE3aK4D9Mm0c9PsE6xOxRBNgfDt04BFhfPxPLjulkHtElDF+8tvlgyPvd8+VaqLqbUprLwxyMVjgt/D0nLpTUctp5PC3jxO2zsleyLWo6c+U3oqFMplIOTcYhbCRBjOxw2fJPMT34cY29I5WJ6br4km6jYKN7IwustdZZbK/2eJjZrYk9jAoh3Hny48ZHlmwScqJ1x2YamjULAU9OsWkG72lLlsqrTBG9tnwmS6wpkQJvYEyC2egV/K45k2S7LvnXlVtFKMptdvJJ6PLm9JU9kde9FZ4xsFSSwbUoReGKlv46cz1PfIzDs8pkfrXL9ylcHYYyxIpfViRgCcTNoFy/BVMfIHlEffcvv1HPKq7YYnkoilYxtBE6mwGDtHugmrBH/AA8ijJE0jsA11nDdVCpAkoZ8e02wcAh0tWYihUBJeookJYPL3chzPdN7paSmfbr1myExEeAiApK9LCbEc0/7VOxmX/8AMe735aHabLRhk0opLVFYL4Gt6Gx69rVVjUtDawknjOeL059+TxZOWgu5ISXOD5KXPONtj3CJ5xt5bF74z0M69OoKwFYRAiAiAjHugRjYYj8kRnYyss3clghjGM4ORjGMAYxjAGMYwBjGMAYxjAGMYwBjGMAYxjAKhfyrd/h0RqY//Nfpy/y7X67f/wB1lmOzTT/C03T1e7wqNRf6CFj/APbI373vdvnqvRj0iLv2P52EPmx7N7V5Iki4eF49f5UzHq8Ty4+6cmesiBERj3DEDH5IjaMAibvL95rTel9PK7fPkw+QU6S5j2i6+I8lKHz2GJkfFdMcFDPnyklgyvvdc7t2p6rqkdadXDtqJxE6PpJRMK0mt5ykzWXybEQUktZetRETWfHlxr/Ptz/k5dQ1jqE+oQ6qZUcBrKiktKG5GngsIEAQTdQBfkfN0TCA2aZH8r1563wNus//APJN7/8ARE//ANywC5+YB24q1ktNfGgHTDVeSfZyvwU1oHxl+N4nADLeU8+Pl8vjmc11zAjEzymIiJKfeUxG0zP5ffn2wCj/ANiu17/8T0p+jY/0+Zt2LUO0YdTrTrz+nj0mPG9qGjDotTvXb4Hhc0jHlZ8GT3KPRyztd8/utat1IzSD03XG6RGn2GseIS6IZ4kpkHr8Eh5WEeGcALZ4bNLYl+vxLOAO0R5zP4523n8c7bRgH0zXt3+eiupdT6g0iK/T7tb6f0qF3SprtIqqu35lm8WDZ4kytIwoOHgluB2Agh8cpHYTjANSnf8Ae3jqbU9Jo0tU6Rbo6WaxTlLS1JNr2h4qswumKwQuQlsEReLM8Y8Pbb1Zsv7FusdQv6cm1qemFpFwybDKB2BtEoQaYLKXACxLxVwLNoH08tswrvQ92j/pKOkBN32MdL1avqhR7N7R7T7PBR4H9OjwuUHPxnxu31CyccAwvtkZp0aTqU6tG+lxSsTqEbOnen4Re0RtX+P/AKLl/Q+v6PPNcX2b7Df/AJUfq+qM2j3qINAltAWLMZE1mMGBjMbEJCUTBDMeUwUbTmNfzP6T+C9O/wD+Kt/CwCg3ZTq/Y3OqabGmLiNSnUKcafPh9Rxtemwv2Sd3/E/0/h/03xX1vLlmyjMTp9lmmLMGL02gBgQmBhTriYGM8hISFcSJDMRMFE7xOZZgHj61aqlI1LBombgtWNZpL3tBAbvAVHO7hhU/GCIlsE+flOVR71nci6a+wupX6en1tHv6dStXql7To9hNL6qTeHOK/BZLOV8C3AiESKQkS4lki96Tue0+p/ZLE2rOm6rp5SWn6pTKYciZKD4kHIPECDiDjiamAfmLBgmCyHdY7iXU2qrGj1B1xbu6TBD41Spp6KjrawneAdYFk/PEF8cFseQjO24iQgTJ3Du0q7q/SWjX9QImW2pctji+U+K1uxVW4/nljVJAzOflmRH99k/54XRXRtbT6lajTUKKtRQIQofcC1xsMbz5kU+8jLcjKZKZKSmc93AGMYwBjGMAYxjAGMYwBjGMAYxjAPzmujvz/d6fzKv+2/Ni+a6O/P8Ad6fzKv8AtvyKvLuHrI2j1OO/EfNT/SV9xjGVE9ZDGMYBYPuMfd6PzKx+2jNi2a6e4x93o/MrH7aM2LZb7t7h6zPJvVH78PzUPiIyIu3HvK6boS59oZ4tkh3VUVME4/okvmWvf/tD2j38YOfTksPHeJiPfMTlYuzvuV103nXrzWXXG82LOwUsIR5bhvJTMkYxxjxDnl6fIV5kV3WwyaKWL0yf2OPDfer3lOueF3ZUql4ylkwScKMFg68uC6jzU4r7TwbwfYrEiSt0fr/WThdqJHR0uC5Kpr3HkP3pFBeZFt/2rR3+VwAILLe9mHY1S0pIqrJANo85iPOZ+eZmfOZn5yKZmczahpoKGAAYEY90RG2dmM+aFkjSeU25Temb0voXEsxkXrsgr2+KoQSo2WPc7NT7GMeOW/OeucsZN46D9YznGZxVyq/enour3az6DhqttpcVsiTDweVQqq0Qa5INmSpzI8UZ5ytAh96slx4HaLqFeDmxWVaBc2NyqFIOkK5jEnCnSKpJkHuKxb6uBRvvxyWO9Opg2tOd4Fk1LW8WNRWsWAHd1V2zpQpnhREIkBI9hnxWfVyGtH1RTYDw2rZvNcJhbBKR2Yy4XIYnePi48ORmB+Tn09jF13lTcq9NOq9M03GXFoef0o13fGyq97qtjVnk9oSWEJRxi82fB4a9ODMgX23Vh9NlVmqYzIs8RJmpZDHMoKwqCR6VSLZnnsIltvyHjnu1O0/TjGWDfqyAz6jh4bR57R753mZ+925cvTty5DmGcOcRE7x4owPnH/4x3tMbx/wqXIT/AMJZJndw6CTZvP1Q0qLwRYhZEoCPxLY1LUlBTG8SpMKXH0c2fWLKhePU5slOO2Ua04rK7VpS9Ceb34ll2P8AVFtlvrqz1qEW8luU4trJwWlp46XxrSSv3eZbOj0yaBLlkOaAHtvCW2HMr7RHyRlBLIAn1AEiEwMjMRJMRjbOYy0UobXBQWhRUeQsMpZTb1kPd4DqSa4og7c1ktCzAANoaU2rYBB16524jxULOIP1qJfq4wR+oRL99HazfrVEWjrWnosLFzaktmzdpEQ7l4RHEFaUXkzwZIWq5EAQz4tI9bRu0OrGqak17DcKZUms9KWvq11QqIsI8VSzgbMWYMrMzPEAKsEkMiQ5mju0LxIiKVZ9ky2kSJbq9bjP3/tLEyuY/wC78SZztPkyHp/X1WkrsIOGJaMGso3jcZ+mJ2mJj5xmIkZ8pz08iTQ9K1DSlWLD3It1zN9y0hSvBOsRbmfshyWzVLiNpBwgZcecGM8gKU6dsWALAmCAxghKJ3ghKNxmJ+iYnfAOxjGMA/E5SzrL/au0OkHvGnU3mPmifCsFE/2vD+wcukRZS3scn2vrzWrPvFCvCj6IkfZ1f/uT/SLIu3Z3ShrrR/44y+BfNiv8uNutD+xd1RJ6pVnCivdNl0xjIG7xdua9mjcaJ+xqTaWxwLMxrMYVchN3CJkFGKyjxJjgEj6pHkOT1tnldU6PFitZrz7noaqd/oYsg/8AvnbbbJG2UZUJtqM1ktrSUqhXdCaqxWLjnzlS2drmjn8q/SKPolgTt9O8T7uHvLf5A+ZcYzpn17oW+82dPmdt4jdclPnttA7bzPz7bcuPr24+rMXpLE07yI8jXZKd4jfd1BbCj+uZ8/rZ6oU1+JE8A/3mDido33jSZHf8vHy/5chIdTKlgsm0zw/CukpNXqr1IScXZY4pP7b0r0HtT2xaQr0xcrj7o9AlMbz8mOQLkZ57T4fq+NgS48slXu8Omy+3eTymk1FdSXSJCNowJpyxXOII1Lg+EMj0HJlxkuO+V7v2YWiWQI7rXVKBgffKaLXCPn+PbbLudn/TnsdGlV8v9mqoR+WVKEJn+uY3zvs+w2hdFojXjUlOWS44NJLVvE/dmzGtftKcJUo04xcdDbxxxepaMDIs5zjOcsZIDOM5xgDGMYAxnGc4AxjGAMYxgDGMYAxjGAMYxgDGMYAxjGAMYxgDGMYAxjGAMYxgDGMYAxjGAMYxgDGMYAxjGAMYxgDGMYAxjGAMYxgDGMYAxjGAMYxgDGMYB+c10d+f7vT+ZV/235sXnNdHfn+70/mVf9t+RV5dw9ZG0epx34j5qf6SvuMYyonrIYxjALA9xov/AI9H46diI/TRObGc1n9zjU/D6ipDPlDgsq3+b/dzZEf1yuIj8ebMN8tt2PGj6zPKPVJg43vi9+hF++a+BzjGMljVQzjOcYAxjGAcTGYb1b2QaZeiYtUkMkp3k+Hht3928OVwbHl5eR+7MyjOM5Ta0HxKEZLCSxRCGo90jTJndDdQpztEDFe4ZrCYGRiRTZiwreAmYjkEwPLy8/PJH7P+g06bVCqgmGIeZMbIy1pzERLGSALXzmBj5AAPl5CMZlG2IjPuVWUlg22vKY1KyUaUnOnCMZPM5JJNr0DMP7Xtemtpd9wz8YNZsJiN5knmEgkIgfPc2kA+Xn55l85EneScQU6rNp8FWo1TslMxC1p+MGGtifeC3EmY2+QfBk+SyzAtVWVGjOpFYuMHJR1tLHAkaMFOcYt4JtLHynPTXbfoNaulMXE1RSsV+BY5IarjERs0DgZHf68+g58xks41XvPaWO8V5tX2feBTqPIG/jXbaKaMj/xe07T7o5T5ZFGo9dUVDDW26oBG8QwnL2jf3+rfy92Y3d7dKURMpC1anaZGK9dhQyBDxGcGlAq5LHjuBmM8iGI5erjrijsnvC0rJs9kblwllSWPkS18ZYq9gsNl7K0WiMY8cox/N6uIznqvr7VNVBiCUOl0WxwYo4XYvvUUbGsmpssrVxZEyE8Ree31cyfsO1gq1qdLGC9jmpNipEzEjXJLoW+uMz6/CmHJNQeYq4sCOMeGOQdc7RdRZt4FRFeNygptslhRMJ8YZCK0kJCyJFcSUjsfLyLjktd07S3NK7euPixYWYU0yKgSC0HXq2ncBHeZljz4Ecz6vZx8hjJe77DfkrTG121ZFLOsjFLStCgm3pSeMnj+RCyvq566dksc9sq4ZeUk3mTSxy8MN/QiyGMYy9mEfC2ewlP0DM/+WU17ii/H1PqO974ddmBn8XjWGTEf1MD9Ectl11q8V6Vp8+5VdrJ/+kJL/wC2Vk/k4NJkdJsun3vusLeffMCtQftRORdfsrTSjqU5+5L4l8un+Vcl4VXpnOhZ4+mpKrL/AKkW6ziYznGShQyuuq90KJNhV9XuoEzaQqJFFy1wxcr4BJVhbxAJ4jyYU+kfVvnTT3S7kHBTrcyMTExH2NrwXKEez78vF47eF97w+V57/NllNsZlRtVaKwUnykJUuWw1G5SoxbensVvlfaHdHDmBWNUuOATWZKBNJKz8JcLgC41iZwII2mBMZ8/IhywMRiJz9b50zqSqPGbb8pn2ax0bNHJowUE9SwOcYxnWZh8XvgYkimBEYmSKZiIGIjeZmZ8oiI985jNTtS04ygBuI5FESG5wMMgiIB8My2Bm5CcRwkvkl9Us+naJ0+dqm1C/OSlUyPiErxQW0GMTLB8whyxJczHHyLbcYnkOC9imlteNt75e6k6wU013CS2RgWOgzSsFxCa3qhaBLi3gJbgsPBEQJP0nqGu/l4D0u4zsXhNBnGfoLhM7e/589GJyJOoujVnqFVennFBiBcy4ymquJeA0Z4Knmsw5ssQBzEqOOAsmZAvBLPh2hdTW9Hip4LjvzZeNYUXCESiIA2E6H16/KIWAnJy1ZCc+CHNO+59VWpGlFzm8IxWLepI+4wcmoxztkxbZxOYB0D2vJusmuxZ1LgjJ+ztIS8RcQEyxDQmQcA84EttiE4KJHYeU5/GfNGtTrRVSnJSi9DTxQnCUHkyWDW8z9ZzjGd58DGMYAxjGAMZXjvfdNX16bqesU9e1PTS03R7jwqVIozVe+qmxYA3e0VHu5NLgk+DQjgA7QM8iLBQ6V1Gp0jqesXdf1XUWWOkblg6tuKQ102Hab7TLE+z1EOg1lBKDm444MLeCniQgXBxlY+7b3rNCcnRtETcM7f2Or1kmVayNS0+lUXFpFa6aorWGp4HzhbC8xKIkp8slDtR7w2l6O5Na21523rJ4U6VO3qFv2dZcWWTr0kvYquud93MEAmRKBkpEhwCTMZH+j9uml2J0mEWobGuLe7TCBbZCwusmHumSkI8KQVO8g7wy5QQbchIc9nR+0Oo+9d01TJK3p66jra/DOIUF2HFWmGSMLOWRXbOwEUjx8+PIcAyfGYl2mdp9LR6h3tQbKUAS1xIrY5rGuOFpSlKQNrnNYQgC1gRT7/cJSMW9pnbVX1DpbqS3VC6gqmk6qLFXqNvT7C2jpzWhHhW1JKd4ICgw5B6tuW4lAgT/AIysfdt71mhOTo2iJuGdv7HV6yTKtZGpafSqLi0itdNUVrDU8D5wtheYlESU+WSP2ld5XStKsRTsHafb8GLLK1Chd1F6K2/H2myFJDvZ07xOxu4c9i4wXEtgJVxkeXu3nSQ02vrHtYs022dVaLKgY0TK48KyI4gEsDdzBWXMB8IuUHx4lx9zWO0OpXvUtOayRt6iu2yovwzKGBRFJWSkxGVr8OHq25yPPl5cuM4Bk+Mr72AW+Wt9bWCL0RrFJG5TsIxV0LToL3+URHOZn+3Ih7zXen0rV6lPTtNbbs+09Q6HWG4uheHTmkvWK0uUnUSSFVsx4c7cGEDI+STMAvBjGQ12k97PRdLstpOdZs266xdZr6dRuagyoookoZbmolq60cI57OMDkPXAzHngEy4yMdc7x2j1tNpas21PsmpCgtPgK9llq7NkIYhdaktRW2tYE8vDFO4R5lxgSnMI7Su9tSX01q2t6cbWMoqt1xU2jcFtbVFI5LReqGpb0CtpplxNEFgsuUsEZ54BYXGRp2B9rwazp6bMBZBoqQNmLFG3QibBIWxsoC2pUtTyKeLF8w+bnOdbto6Qv2yrCnXT0SgMNm6dZVaLzymB8FablyHJqriPEM5GsTZkR2MYkuIEqYyt/dF6zu2H69TbqJ61pum30V9L1hsJ8W1B1hbcrMdWWpFqaD58GbAB6zI4n5IiM09onaRR0mo6/qNkKtRERLHM5TEcp4iAAEExrCmYEVLAzMvIRKfLAMnxkQaB3o9KsUtQ1CY1CvV0xMWbRXNLv0y9nkWGL0rsV1m9cio5+JEyjj5wPIeWXdQdqdGsOnG5siOq2kU6MwtheNYspbYSEwITK4JSWHJt4gPHaSGSHAMxxkP9oXes0XTLbdPtWHTqCwQwaNenbtW3jZhxLmsmulhPiIQzxCXyFPp5yvmHLIOj+3TSr2mHrCLi409UOl73wdb2aa8yNgLK3itldiZiYMGgM/JnzghIgJAxkT9lfeX0vWWmFH27gKJshZs6Zfp1H14IBJtezbrpU2IlgeUFymC5RBCJEONVe+/08yzXrqsWnBZuL09F5Om6gzTGXWt8BVdeoDW9lYTG+iDWw1fPz2EigCfcZWfUeq0VuttTtWrAV6lDo+jL2uOASqG6tfYRnJTtHoUH4592StQ7ddMPSZ1w3lW0uFS/2m4h9TdO+wthVha3SLZkYT8VydyDw4Z4i+QEhYyLuzjvHaTqhWV13PS2okbL036dzTmjUZz8O3AXkokqzPDOYcG4xt6uM+Wdfst7zOl6y6E0fbyg1G+vYfpmoVadtCyESbVt2K60ODcx24nyKJ3iCjecAlnGeZ1H1Gimhtq01aKyFk1zmlALUsI3IzKfKIiMj3st7y2k6w8qtJtmLEV4uLXboXqJWKUmK4uVvbK6PHrSwxDxF8tiId4HkPICVcZAXW3fg6doMsg2zacFJkqvWaenX7tOkyJGCCzcrV2VgIJmBIBYZgXpIRnyzPe1jt00zRFoZqDyWVo5VUrpQ+1btNgeUhXqVltsNkY25EIcA5DyIeQ4BIGMqV3pu2Kpb6f066JvqVW9SaEmwV6vY09iFp1VDLEvVaWpi1iCZOTKOEh57zGS52Qd57R9de+tp73TYrqB5Js1LVNjKzJ4qtJC0pUtrMnyhgRPvHfjyHkBLOMYwBjGMA4zXN35S/8Aj0/ip14n9N85sZzWf3x9T8TqK6Me5IVlb/N/u4MmP6pZMT+PIm83hR9ZG1eptByvfFb1GT98F8SFcYxlSPVwxjGAZD2ddUew6hRuTOw17SWMn/8AKhkQ6P61ScZt1Ue8RP0xmmdgbxMfTG2bNu6b2j/ZLRapEXJ9WPY7G87lzRECBF9MtTK2zP0nP0ZYrqqdtD1jz91Urub2m2xWZY0p+nsofq5UTPjGMsJ59GMYwBjGMAYxjAGMYwBnwsVxIZEhghKJghKImJifKYmJ8pifoz74wCnHbJ2UVaOqy1VZCwvCbBkFAMhMrqUHBExEbByYl3H3ep0x99mOVHRHAvf6kMnaPKd4mgUfrNjnLXdq/ZUvVUAo3NrMWyDCwiFy4I8uQj4oMDY9h35AUbiM7biO2Dab3R9PieVi1qNudpghZa8BZxM8vNVMKy49XqjiI+fn7/PJ6yW+nRpqLjnWo1dfWxW0W21yrU5pQnhji3iteCw39Okr7Z1hVcVk5q1wPgR8a0VyU1XFWPaDnz5SwT8vvR88nnukoOK14iU4BO0uVsapqYcK6qUckw0BliplXiQwOQETS2ncSyR+kOxzS6ERFWkhcxMzBlEtbvM7zMudLGzO8/OeZpmPa7c68VHDBExcWxlXZVdaVTKm4uOCWCw5W97iP3jGMiS8kSd6vWPA6e1Q99t6rVxP42j4Uf8AmeY53HtH8Hpyj5bSzxmz+PxHGYz+jMZ5Hf8A9b8Lp1y99pe+uuP6mi2f/Jc5KPd+0X2fRdNV7pCnXify+EPKf65yLXZWx+LRX/Of0L5L+Tsbit+teDfljQopfnVZIec4xkoUMYxjAOM5xjAGcZzjAPg1PKJGfdMTE/P7/L3ZEfZ5Op+zlQVKAVQZ7Eu+zmxlhaVr4nFeIAPEiD8NjIcQGaGTAJlvCvMMZAc9olnS7N3T1UYtjFhttdgbC0APt5MsyuyJyxsMCwTORpAh8ElmIb/FZjWi007PB1KslGK33mR2U6U6slGCxepEpWLFTSarXvb4ahnxXvbMmxrC2GJmBiTa1k8VqSkNynw1KX/RhldlajY1K4WqWwNIwBK02mzaSq1zmObmwMkuLdrjBFw5SCuK5YyPSvtXlWbjRs6k0XGspOvXCJGpU8piTAJndjpHlE2GyRABEsOME4rEc9adfstmynSKQSETF67ERutZeOohQto7N2YvZrgkhT6vJkiwB1rbbxtF/wBbc67U3B90q6Fh8I+XO9BPTdnuWg7dbpKOT2sd/HeS1ye8kZJpnarVnWKCxk/Cq2pmzciJ8BMsVYrCojgh3GXEAtOPEUr4uTERIWruTvlCUaGoF+AIQtY7xwgj4iTt5mYOJlng2pk5hpSRi7kcyRcvGs73cO0A71Ils3JtBs0mNkdhZKxiY32iA8YBkQcK/i4PzHjBeEvaFluCFz2WFKEnLht783pa1Li+JrS7dlbvy01cuOQ1nppfd6M717/pzZliS5nOMZ9lpGMYwBjGMAgnv0X/AA+j+oi+nS7C/wBaPhf/ALeY/wB6KfZegNTD3cOn4rRH42V119v7+2WWxgFQ+8fp9LRP+ggMlVPTNL1hajsFsCK4q0i4pEGe2wQ5m0bz8ovfkddonULdP6v6iO71IvplOoVdJKjZfpybB3KCKfhvVp92yyU12ouy+WV/AaZm1bIAvvb+MXE+UxE+cTtMfPE7xP8AVMbxnD64ltyGC2mJjeInaY90xv7p/HgFL+ox0jp630A8GlW0CpS1sF3rcMAQbfp02VTuMaC5S65vZOfGBXxpEHAPkjkfdH7Qlat1H1pqNcWRWYzQa9Y2rNRORXoPIHiDBE4U/wAaXpKRjmlqz++yeu1TU9WUpc6TRo32EUi5d26ykABI+hgGupb8TYvlBIh6fcW+Yv3eeya5p46lc1RyHarrN6btyakM9lQIIVVq065NgGsVWrpAYawAMyIvTHlgHT72AaKzTQRrl+dLU22gqeoCwkHT1CvM2KthdjiSktUSpISdxA/ke8ojK9652zXdR7Puqzt2F6h7GOo6XW1dCZQjWK3hpWu8tXyIkyeaDlPJBNUXAijlxvY1UFEwURMT5TExExMfRMTnK1QMREREREREREbRER7oiIwCo/eP0+lon/QQGSqnpml6wtR2C2BFcVaRcUiDPbYIczaN5+UXvz4dI9sumdPdQdW/Z60FB1+5Tv0rFkTEb+mr06uhKqhwM+OVRwPUSA5GJs8g9RZb5i4nymInzidpj54neJ/qmN4zhiBnbeInad43iJ2mPnjf3T+PANf2qdPvqdCV7Nqs2tWnqevrb6xrKG0NHd1JF4fETEch8JBg417brEy348S45ZqHeT0q/wBc6CxNoD09WmapTqahsUU7mq3X6eJUaj5iFvctUI5eFJDzaIb8hIRuzMb58YqDHHYR9HyfKPT5beny8vLy8vmwCiGsam1uldp2m0z31pmpapZGkEz7YVA9N0tAtWqPjJW5MMBRD8sy4Ryn05j3a93l+n30ejqekuE9P03W+nbmpOBTBq6PSqMEFBfbIQus03yEcDLl8U6S2jjJbE4CN5naN523nbzmI928/i3z5jSCN44DsUzJRxjYpn3yUbecz9M4BzTtiwAYEwQGImBR7iEo5CUfimJ3zXb0r3gNP0Xp7qqlbM46ofd6jZaoQpxXbNh5WPZbIxC5kqIU/AZ7Tv4Kq62Tv6dp2NZXrtq6O6j1eLukrRpNLTLozUdq0W7DtQnTXxAWUpo+wisLRrJi4M7hJDlz2KfTgFaOpvaNOns+ts1NWi0EdKjTVqdmhF+rV1FtTT+YNg3JVVbaqrMFWWFx+LYviUMLjnvXfS1P/oF1TY0m6/W3aku7au6kS+J37PFSrDEgtSlRWTXVwUFYJSIKLjLJ5EVzNJ0BSa6qqwjwEqWhYFHKIWsIABnf37DERnoCMRG0eUR/ZEYBhHZB2nabqtMHaVbVdrJkK0tRMkAsBKmSqZ2iOYravkP3klxnjIkIxx3j+1TplTVaV1RXGKjgG1Xs6jUlmlMeEsVKgs7GC7iQKSkWCr4to8TKS45PaUCMbDEDHnO0RERvM7z5R9M5y5MFEiURMTG0xMRMTH44nAKr9xO8Jzr32Mh//RYb6B6d8fx+Ph+zDOoxTiz8bFD2yZlEfIjkyB+SQj2++pbGvY6W1C7BTo2n67FjUygCYuuU1Hr0+3YEYLZFa2YkTCHiEkM7j5ZaCIzghiY2nziffHzTvgFZe8F2o0tf6T6nHQ7K9TlWm2VGVTkxckSCM1qbA+G5kKgp4JI534jPmQjkO9qveo0O1c6J9luLZpdHUlWr+oQJxSotjSraqNWxYmPCXadJOLwOXNcK3IR5Dyv0hAjECMQMR7oGIiIj8UR5Z8/Yw224jx35bcY25b8uW3u3389/p88Api3tg0PS+vOormr3a9JitG0apUbYgo5AyLNu0tRQM7snasXgxPis+9AuJccC6o6ZtN6S1fVGU7I0NX6yX1DZoyk4sl07FyiLCbViPE3cmpF1i9i+KPnPlyLLadnHZPYra91LqVjwSRqrdImnAzJMENP0+EMloyEQBe0E2Q4kfp4zuM+WTBgFVu3Ttxo69011DU6avL1G6OjuPhQ8Rkipg8SXBgHGHsT4ghWgvGmfKAyH+2TvM9PPp9JVtIdB6bp2u6BbvuWpg1dHo1D4oC+2QhdZsvlUQo558VOmYGIEi2BorCEbCIjEzMzAxERMz752j55zj2UdpjiOxbyUbRsUz75mPn3/AB4Brp7wPRzdQ6o1fWa6p1Sr0/W6XuWtG8zRq1Foao9kiqJiHWaYzFyqpnJRmJRIMlgjkl977tHRrHT+karo95bNLrdQaZav3V1SvJq1Eg0pdapQSicqnaZUa+tOxBw9XGVkOXSz5LTAxtEREeflEREefnPlGAVR7HbmhvnWtbtdQD1I9emhS1G6qrCqNXSy9ofNOsimDAnlMNc8Ydasx8Xy8OCXBeT3Q+0FadWb0/pOrBr/AE8nTIuUrAzDm6LI2FoVpL7gbLeolEZ1xZ/tKgQQSPARLLhoriMbCMDEe6BiIiP6o8s4r1RHfiIjvMzPGIjeZ98zt75/HgFb/wCUH0uy3pw/A5eCrUNMsahxrzbmNPRdU2ywqgkE2lo4g9iOQ81KZEyMciHGOx2amp2dQ1Or1IHUuuJ0d1WoytWXToaeqz8aC1rTzWFl9hS5MrFptgQXx2WIlvb7PiiuIRsIwMbzMwMRETM+cztHzzgGsHqztx0oOzheg0Ya3VRpVlatQCu+bNBibKXa5b1EJXEoXDBsfGOkfENq9uXq4z31f2t6ZV6x03XL9tI6Jb6YZW0fVDLfTxvzqBOtgL/NSnWKcJ4tKQhqgIIkvcVwxQO8ztG5fKnaN52jaN/p8s/LKYSPCRGR2iOMjEjtHujjPl5fNgFVO8vr+n9QU+kprmFzT9Q6u08eXA4XZVTDUmtji0BliTOpIc9uDALmMkJCRel1B1DXq9olSbLARNvpMqdKWen2qyWsi06yp/7Rq1rBnhx5iBEfu5Tln4jPyS4mYnaN432nbzjfynafmwDGez7tLo6qllig/wBoSqy+oZwDV7PrMlT17NBZTwOJjnESBe8SKPPMqz5guI90becz7vnmd5n+ufPPpgDGMYB8mntEz9EZqK7ReqPbtQvXIncbFpzFz/8AlSyYTH9SoCM2J97LtH+xui2iEuL7Uex19p2Lm+JEyH6JUmGNifpCPpzWSsNoiPojbK9etTtYesegupbdzW3W2SzPClT9HZT/AE8jP1jGMrp6BGMYwBk3d0TtjjSdUhTi409Q4IbMzsKnxM+A2d/KB3KUmXpjYxOZ2XkI5+HKgomJ90xtnfQqulNTW8Qt8XZTvKyVLLU0Tjm8WX2ZeVPObmxnOcqz3Ne8dF9I6XeZ/t9YNksOfO5XCPIt5971D5Mj5RhEM9XxvC02XelVjUipx0M8U3ld1a7rROzV1hKL9ElvSjxP+85+sZxvnOdpGDGMYAxjGAMYxgDGMYAxjGAMYxgDOM5xgFOP5RuxJ1tKpx8qxfiYj554gS/8XDltdArQCVDEbQIDER+SNtsp73vme09S9NU48+DvGKPpGbCSnf8Aqrl/ey5yB2iI+iIyLs3ZWitLjjDkjj8S+X1/Kue7qO+4VrRL/crZC/40kfbGMZKFDGMYwBjGMAYxjAON8hrtp6Os+Mu/UQdmfD8C4hch4pJCSYpyRMhg2KImD4cHu2G7cSkRIJkxtmDbLJTtdKVCqsYS0/TjTO+hWlRmpweDRRLtKs3nMGrYrWdNpMHmRMgYtXBnyEU8JYK1iXHx1SY2+JrCATLBMVOqKhEQgViuIJYqiOComI2YoR2iarImBYuOPhenbj8T4N1epulK91JIsqFqi+ad4mJ+YgMZg1nHzGBCUfNMZA1fuotZbMbVsT00fUK1wQWrBFM81vZEQKkkM/HCj/ejJm8IAmKfLXFRsd1UHSowyXpctLm+N/2tWBrrZVdNvvi1Rq7ZlU9GQ8yp65Jb+PLvPFEe9mvRL9YbK0wSaK9wsXB90QXkynRZEcHg2PPxg9NcPOOMlX4W96Y6aRTQqtWWKkJGAWAx5QMf+czPvkp85nznOzpOkqQsEpWKlLGBWsIgREY90REe7O7n3abTOvLGWjeWosF03RRu2lkU1jJ9vN6ZP4LUvjnP1jGMxCeGMYwBjGMAYxjAGMYwBjGMAYxjAGMYwBjGMAYxjAGMYwBjGMAYxjAGMYwBjGMAYxjAGMYwBjGMAYxjAGMYwBjGMAYxjAGMZxgHGcFOc5Vnvld4/wBgSWl0Wf7fZDZzAnzp1yjzLePc9o+S4+UAzLPT8Vz6qtSNOLlLQiTu27q142iFmoLGUn6IrflLiX95yvXe77Y41bVJUkuVPT+aFTE7i18zHjtjbykdxhIF6o2AjidmZCOfhKoGIiPdEbZ+8pFeq6s3J757Wue7Kd22SnZaeiEc/jS+1Lyt5xjGM6CaGMYwBjGMA/VeyxbAclhKcooYpq5kTAxncSEo90xObAe7L3uk6oIUdQIK+pjECO+wKu7R8tPzC75yR/8AUHKOUL1+Z8n14Lb3xMTExMTtIzHnExMecTH05n2W1yoPWvtRKNsm2LWe+qXZdjWj2lVaV4stceLkwNz0TjfNenYp347unwFfVgO/VjYRtBMTcUMeUeJBTA2Yjy9UyDPlTJMniOXY7PO17TdVX4lC2p8RESQDOzV7/M1J8Wrn/nAd/my1UbTCquxefVvnlq+NjtuuqbjaIPJ3qizxl6d7yPBma4ziJznMorQxjGAMYxgDGMYAxjGAMYxgDGMYBGnUfYfTs6rW1ZgTNqqPBRcziIH4zy4QXhz/AEpzvIcvV7/SOSQMY2znOuMIxbazY53xvWzvq2irVUY1JOShHIgm28iGLeTHHQsW3gs2Les/WMYzsOgYxjAGMYwBjGMAYxjAGMYwBjGMAYxjAGMYwBjGMAYxjAGMYwBjGMAYxjAGMYwBjGMAYxjAGMYwBjGMAYxjAGMYwBjGMAYxjAGMwTXbDEzqLAY4pTS8dS+cTAsIbRekT2D3rDjBzxjj/wA2dh/aFwNCzTMMc1iijxNxAluFM8DkIhkzzFsDPhz4fv4lxAgMzxmF9U68arAj4hjEAiVKDwYKwZtaLRiHRu3jApDgkwIPH5TPqWQ9S91VYitc4cScoLrAI54RELtWlB5wtnmtag2iV+r5y9W+AZ/jML1TqpyHWZYsZSqtUOIBhSUMc56ymY8GNl7jHI+c8QXzgNyIY7mgdYFYZACnYPBW02eKMxu1lhYisYjc43rFMkfhTxNfo38QVgZRjMQ1+1KbEtk3ysKlmwaQLcSJEp2gQ+mYk/LfYiLzzoW+1QASDpWOxQ8v6cIGYRK4kEkURLWslg8FyCyLiz6oQwDPsZg9zrVhEQpACNdoEyHjhzmJY1JeOPGZrhMr8UZiGEavOI5cgz5Wu1QB84Scx7LNqBkhFkxFYrMCIl6SjYPD5wfk3y47CZiBnuM6lFhyMSwYA/PcRPnEeflsXEN/L/gjz/tntTOAcb4mcwztD7XtN0pfi37akRMTIgU7tZt8ykhyayf+QC2+fKT9tffju6hB19JA6FWdxK0cxFxoz5T4cDMjWifP1RJs+TMEueQ5i1rTCkuyefVvllufY7br1mo2eDyd+o80Y+nf8ixZOvea73SdLE6OnkFjUyiRLbY1Ut4+W75id84o/rPjHGGa/rFljGG5zCa5pSxrTmSMzKdyIin3zM58EV4Hf3zMzMzMzvJTPnMzM+czP059cqtqtcq71L7MT1NsZ2LWe5aXY9lWl29V6X4sdUeLlxGMYzALwMYxgDGMYAxjGAMYxgDPihMgYtUbEtGdwaoyWwZ+kTCYKJ/HE59sZ9KTi8Uzpq0YVk41Ipp6yWuj+971HSiBi2u6sdogLyoYW342rlTzn8ZsLJW0X+UesjERZ0cDn5zRckI/qWxB/wDqZU/GZ0LfWjmTx8pR7XsHui0tydJRb4OMP6cC6Kv5SOr99pNyJ+iGJmP7ZmM+n2yOn+Cr36af38pVjbMjdOtxEP1t7p1S58i6v2yOn+Cr36af38fbI6f4Kvfpp/fylW2Nsbp1uI46291apc+RdX7ZHT/BV79NP7+PtkdP8FXv00/v5SrbG2N063EOtvdWqXPkXV+2R0/wVe/TT+/j7ZHT/BV79NP7+Uq2xtjdOtxDrb3Vqlz5F1ftkdP8FXv00/v4+2R0/wAFXv00/v5SrbG2N063EOtvdWqXPkXV+2R0/wAFXv00/v4+2R0/wVe/TT+/lKtsbY3TrcQ6291apc+RdX7ZHT/BV79NP7+PtkVP8FXv00fvZSrbG2N063EOtvdWqXPkXV+2R0/wVe/TT+/j7ZHT/BV79NP7+Uq2xtjdOtxDrb3Vqlz5F1ftkdP8FXv00/v4+2R0/wAFXv00/v5SrbG2N063EOtvdWqXPkXV+2R0/wAFXv00/v4+2R0/wVe/TT+/lKtsbY3TrcQ6291apc+RdX7ZHT/BV79NP7+PtkdP8FXv00/v5SrbG2N063EOtvdWqXPkXV+2R0/wVe/TT+/j7ZHT/BV79NP7+Uq2xtjdOtxDrb3Vqlz5F1ftkdP8FXv00/v4+2R0/wAFXv00/v5SrbG2N063EOtvdWqXPkXV+2R0/wAFXv00/v4+2R0/wVe/TT+/lKtsbY3TrcQ6291apc+RdX7ZHT/BV79NP7+PtkdP8FXv00/v5SrbG2N063EOtvdWqXPkXV+2R0/wVe/TT+/j7ZHT/BV79NP7+Uq2xtjdOtxDrb3Vqlz5F1ftkdP8FXv00/v4+2R0/wAFXv00/v5SrbG2N063EOtvdWqXPkXV+2R0/wAFXv00/v4+2R0/wVe/TT+/lKtsbY3TrcQ6291apc+RdX7ZHT/BV79NP7+PtkdP8FXv00/v5SrbG2N063EOtvdWqXPkXV+2R0/wVe/TT+/j7ZHT/BV79NP7+Uq2xtjdOtxDrb3Vqlz5F1ftkdP8FXv00/v4+2R0/wAFXv00/v5SrbG2N063EOtvdWqXPkXV+2R0/wAFXv00/v4+2R0/wVe/TT+/lKtsbY3TrcQ6291apc+RdX7ZHT/BV79NP7+PtkdP8FXv00/v5SrbG2N063EOtvdWqXPkXV+2R0/wVe/TT+/j7ZHT/BV79NP7+Uq2xtjdOtxDrb3Vqlz5F1ftkdP8FXv00/v4+2R0/wAFXv00/v5SrbG2N063EOtvdWqXPkXV+2R0/wAFXv00/v4+2R0/wVe/TT+/lKtsbY3TrcQ6291apc+RdX7ZHT/BV79NP7+PtkdP8FXv00/v5SrbG2N063EOtvdWqXPkXV+2R0/wVe/TT+/j7ZHT/BV79NP7+Uq2xtjdOtxDrb3Vqlz5F1ftkdP8FXv00/v4+2R0/wAFXv00/v5SrbG2N063EOtvdWqXPkXV+2R0/wAFXv00/v4+2R0/wVe/TT+/lKtsbY3TrcQ6291apc+RdX7ZHT/BV79NP7+PtkdP8FXv00/v5SrbG2N063EOtvdWqXPkXV+2R0/wVe/TT+/nH2yOn+Cr36aP3spXtjbG6dbiHW3urVLnyLqfbI6f4Kvfpo/ezn7ZHT/BV79NP7+Uq2xtjdOtxDrb3Vqlz5F1ftkdP8FXv00/v4+2R0/wVe/TT+/lKtsbY3TrcQ6291apc+RdX7ZHT/BV79NP7+fNv8pHV+90m5M/RLExH9sTOUu2xjdOtxHPW3urVLnyLYa1/KPWSiYraOAT8xvuScf1rWgP/UyKesO971HdiRm4ukst4kKKoWW34nMlrxn8YMHIlxmPO31pZm8PITFk2D3RZmpKkpNcLGf9WJ8XpkzJrTY5pTubWmTGFP0kZzJTP45nPtjGYLk5PFsvFKjCilGnFJLUMYxnydwxjGAMYxgDGMYAxjGAMYxgDGMYAxjGAMYxgDGMYAxjGAMYxgDGMYAxjGAMYxgDGMYAxjGAMYxgDGMYAxjGAMYxgDGMYAxjGAMYxgDGMYAxjGAMYxgDGMYAxjGAMYxgDGMYAxjGAMYxgDGMYAxjGAMYxgDGMYAxjGAMYxgDGMYAxjGAMYxgDGMYAxjGAMYxgDGMYAxjGAMYxgH/2Q==;" vertex="1" parent="7">
                    <mxGeometry x="530" y="100" width="212.82" height="125.92" as="geometry"/>
                </mxCell>
                <mxCell id="10" value="Please enter in a number and what it will be divided by&lt;font color=&quot;#484848&quot;&gt;.&lt;/font&gt;" style="text;html=1;align=left;verticalAlign=middle;resizable=0;points=[];autosize=1;strokeColor=none;fillColor=none;fontSize=20;fontColor=light-dark(#000000,#FFFFFF);" vertex="1" parent="7">
                    <mxGeometry x="20" y="100" width="510" height="40" as="geometry"/>
                </mxCell>
                <mxCell id="8" value="" style="whiteSpace=wrap;html=1;" vertex="1" parent="1">
                    <mxGeometry x="40" y="63" width="760" height="55" as="geometry"/>
                </mxCell>
                <mxCell id="11" value="Division with Repeated Subtraction, in JavaScript" style="text;html=1;align=center;verticalAlign=middle;resizable=0;points=[];autosize=1;strokeColor=none;fillColor=none;fontSize=30;fontStyle=1" vertex="1" parent="1">
                    <mxGeometry x="80" y="68" width="680" height="50" as="geometry"/>
                </mxCell>
                <mxCell id="14" value="Dividend..." style="rounded=1;whiteSpace=wrap;html=1;align=left;" vertex="1" parent="1">
                    <mxGeometry x="70" y="200" width="300" height="20" as="geometry"/>
                </mxCell>
            </root>
        </mxGraphModel>
    </diagram>
</mxfile>